<svg width="113" height="112" viewBox="0 0 113 112" fill="none" xmlns="http://www.w3.org/2000/svg">
<rect x="0.147461" width="111.866" height="111.866" rx="13.4023" fill="url(#paint0_linear_1845_142)"/>
<path fill-rule="evenodd" clip-rule="evenodd" d="M53.5757 21.5234C45.3205 22.0767 37.6174 25.5005 31.7066 31.2433C25.4748 37.298 21.7737 45.3237 21.2266 53.9695C21.1614 54.9982 21.1614 57.3067 21.2266 58.3353C21.7713 66.9419 25.4368 74.9302 31.6102 80.9645C37.5885 86.8082 45.3378 90.2576 53.6727 90.7852C54.6943 90.8499 57.011 90.8506 58.0145 90.7866C65.7298 90.2941 72.9102 87.3344 78.7267 82.2491C79.5079 81.5662 81.2836 79.7925 81.9309 79.0485C86.6762 73.5949 89.5542 67.0761 90.3367 60.0088C90.4827 58.6902 90.5347 57.6777 90.5347 56.1524C90.5347 55.392 90.5119 54.4097 90.484 53.9695C89.9967 46.2701 87.0244 39.0828 81.9079 33.2321C81.2059 32.4295 79.4485 30.6826 78.6162 29.9601C72.8415 24.9477 65.66 22.0021 58.0379 21.5196C57.1168 21.4613 54.4683 21.4636 53.5757 21.5234ZM58.232 24.5731C60.3639 24.745 62.4523 25.1105 64.3637 25.6464C75.5871 28.7928 84.1765 37.8288 86.7449 49.1914C87.2713 51.5202 87.4985 53.6193 87.4985 56.1524C87.4985 58.6855 87.2713 60.7846 86.7449 63.1134C85.1604 70.1233 81.2867 76.3218 75.6563 80.8571C71.0609 84.5588 65.3534 86.9459 59.5173 87.6073C57.154 87.8751 54.5566 87.8751 52.1933 87.6073C42.3912 86.4965 33.5433 80.7132 28.5237 72.136C26.0743 67.9506 24.6899 63.4962 24.2724 58.4566C24.1441 56.9081 24.2023 54.2713 24.4041 52.49C25.0065 47.1734 27.0642 41.8974 30.2274 37.5597C34.1553 32.173 39.6745 28.1353 45.9122 26.085C48.7402 25.1554 51.2816 24.693 54.5942 24.5054C55.1241 24.4754 57.5885 24.5213 58.232 24.5731ZM57.09 27.894C56.9228 28.0612 56.9321 28.2672 57.1136 28.42C57.2553 28.5393 57.5204 28.6053 58.1471 28.6777C58.3885 28.7056 58.426 28.7237 58.4258 28.8124C58.4257 28.8687 58.3387 29.4933 58.2324 30.2003C57.9977 31.7615 57.9965 31.8016 58.1742 32.0006C58.2833 32.1227 58.3583 32.1577 58.5501 32.1759C58.8349 32.203 59.0198 32.0887 59.0985 31.8367C59.1255 31.7504 59.2387 31.0577 59.3501 30.2973C59.4616 29.537 59.558 28.9088 59.5646 28.9014C59.5711 28.894 59.7814 28.9213 60.0319 28.9619C60.8313 29.0915 61.0423 29.0592 61.1351 28.7928C61.1985 28.611 61.142 28.4395 60.9849 28.3365C60.8673 28.2595 57.7807 27.7749 57.4076 27.7749C57.2614 27.7749 57.1776 27.8063 57.09 27.894ZM53.4082 27.8741C52.5439 28.0098 51.9286 28.423 51.6198 29.0749C51.4728 29.3852 51.4659 29.4263 51.4682 29.982C51.4702 30.464 51.4889 30.61 51.577 30.8309C51.8034 31.3988 52.2262 31.7927 52.8351 32.0031C53.1166 32.1002 53.2534 32.1159 53.7939 32.113C54.3487 32.11 54.4705 32.0938 54.8072 31.9777C55.5014 31.7383 55.9224 31.3626 56.1619 30.7688C56.3096 30.4024 56.3055 29.564 56.1539 29.1766C55.9125 28.5593 55.5423 28.1983 54.9332 27.9864C54.5465 27.8519 53.8676 27.8019 53.4082 27.8741ZM62.0964 28.6012C62.0211 28.6607 61.941 28.7578 61.9185 28.8171C61.896 28.8763 61.7115 29.6695 61.5085 30.5797C61.1586 32.1492 61.1432 32.2434 61.2098 32.4027C61.3623 32.7679 61.9729 32.841 62.178 32.5188C62.2169 32.4576 62.4166 31.6544 62.6218 30.7339C63.027 28.9153 63.0344 28.8206 62.7846 28.6353C62.5834 28.4859 62.2626 28.47 62.0964 28.6012ZM54.5007 28.7815C54.8514 28.9591 55.0498 29.253 55.1266 29.7084C55.2895 30.6743 54.7707 31.3303 53.8424 31.3323C53.4584 31.3332 53.241 31.2569 52.9841 31.0314C52.7081 30.789 52.5853 30.4514 52.5849 29.9335C52.5845 29.4233 52.6771 29.193 52.9874 28.9324C53.2436 28.7174 53.4362 28.6561 53.8701 28.6517C54.179 28.6486 54.2792 28.6693 54.5007 28.7815ZM48.1434 28.8658C47.3452 29.0454 46.6271 29.5695 46.3356 30.1851C46.1933 30.4854 46.179 30.5578 46.179 30.9765C46.179 31.543 46.2737 31.8748 46.555 32.2933C46.9539 32.8868 47.4887 33.1705 48.2161 33.1746C49.5645 33.1821 50.7321 32.3353 50.7356 31.3475C50.7365 31.0965 50.721 31.0503 50.6014 30.9473C50.4435 30.8115 50.1981 30.7943 49.9859 30.904C49.8444 30.9771 49.8399 30.9874 49.6868 31.5828C49.5347 32.1741 48.5225 32.554 47.9525 32.2337C47.4196 31.9341 47.0995 30.8965 47.3618 30.3189C47.5388 29.9292 48.069 29.6167 48.5491 29.6193C48.777 29.6205 49.0289 29.7315 49.3798 29.9855C49.5787 30.1294 49.6511 30.156 49.7851 30.1342C50.3104 30.049 50.4114 29.5957 49.9901 29.215C49.605 28.867 48.8077 28.7163 48.1434 28.8658ZM64.6501 29.3009C64.5654 29.3378 64.464 29.4188 64.4248 29.481C64.3578 29.5871 63.3129 32.3773 63.2238 32.688C63.134 33.0011 63.4082 33.3049 63.7804 33.3049C64.0796 33.3049 64.1618 33.1772 64.5611 32.0922C64.7624 31.5452 64.9396 31.065 64.9548 31.025C64.9701 30.985 65.0804 31.2578 65.1999 31.6313C65.9775 34.0611 65.9759 34.0571 66.2796 34.2618C66.3887 34.3353 66.515 34.3721 66.6581 34.3721C67.0236 34.3721 67.0668 34.2971 67.7294 32.5145C68.0545 31.6395 68.3206 30.8621 68.3206 30.7868C68.3206 30.3477 67.6268 30.1284 67.4028 30.4968C67.3541 30.5769 67.1448 31.1002 66.9378 31.6599C66.7307 32.2195 66.5527 32.6687 66.5422 32.6582C66.5318 32.6477 66.3044 31.9649 66.0369 31.1408C65.7695 30.3168 65.5175 29.5915 65.4768 29.5293C65.3965 29.4064 65.0571 29.2318 64.9011 29.2331C64.8477 29.2336 64.7348 29.2641 64.6501 29.3009ZM43.9722 30.3981C43.7802 30.4782 43.6366 30.6391 43.6045 30.8099C43.5798 30.9417 43.6761 31.1927 44.1926 32.3424C45.137 34.4448 45.0918 34.3721 45.4547 34.3721C45.8142 34.3721 46.1229 34.028 46.0308 33.7301C45.9321 33.411 44.6291 30.5963 44.5364 30.502C44.4104 30.3738 44.1467 30.3252 43.9722 30.3981ZM41.6197 31.6321C41.3167 31.7922 41.2295 32.0491 41.3798 32.3397C41.4212 32.4197 41.7049 32.8626 42.0103 33.3237C42.3157 33.7848 42.5655 34.1746 42.5655 34.1899C42.5655 34.2051 41.8835 33.9906 41.0498 33.7133C40.2162 33.436 39.473 33.2087 39.3983 33.2084C39.0675 33.207 38.7338 33.5315 38.7339 33.8543C38.7339 34.0365 38.8324 34.2051 39.7161 35.5363C40.5777 36.8343 40.7173 37.0211 40.8542 37.0587C41.1477 37.1395 41.547 36.8504 41.547 36.557C41.547 36.434 41.1436 35.7638 40.4671 34.7628C40.3689 34.6176 40.2947 34.4927 40.3021 34.4852C40.3095 34.4779 40.9691 34.6892 41.7679 34.9549C42.5667 35.2206 43.292 35.4383 43.3795 35.4387C43.7746 35.4401 44.1179 35.1607 44.1173 34.8379C44.1169 34.6614 44.0127 34.48 43.1938 33.2321C42.6861 32.4584 42.2225 31.7768 42.1635 31.7174C42.0182 31.5711 41.7999 31.5369 41.6197 31.6321ZM69.8969 31.7499C69.8435 31.7718 69.765 31.8305 69.7224 31.8803C69.6351 31.9824 68.1369 34.4083 68.0128 34.6486C67.8919 34.8824 67.9123 35.0316 68.0902 35.2158C68.2703 35.4022 70.5745 36.8315 70.7985 36.8957C71.1567 36.9985 71.4205 36.6328 71.2075 36.3287C71.1681 36.2723 70.6879 35.9491 70.1405 35.6103C69.593 35.2715 69.1451 34.9789 69.1451 34.9601C69.1451 34.9413 69.2561 34.7454 69.3918 34.5249C69.6271 34.1425 69.6434 34.127 69.7435 34.1903C71.4899 35.2953 71.6969 35.3836 71.909 35.1139C72.0223 34.9698 72.0095 34.8012 71.8739 34.6507C71.8317 34.6038 71.4179 34.333 70.9543 34.0488C70.4907 33.7646 70.1002 33.514 70.0865 33.4918C70.0656 33.458 70.4396 32.7713 70.4789 32.7713C70.4862 32.7713 70.9353 33.0441 71.4771 33.3776C72.5269 34.0239 72.7173 34.0933 72.8966 33.8953C73.0147 33.7647 72.9997 33.4887 72.8677 33.3653C72.7313 33.2377 70.5968 31.915 70.3334 31.7948C70.1212 31.6979 70.0435 31.6899 69.8969 31.7499ZM54.5319 33.7915C52.9722 33.968 51.5675 34.3795 50.1562 35.0734C46.1071 37.0642 43.4034 40.8809 42.8527 45.3835C42.7818 45.9637 42.7655 47.4034 42.8217 48.1258L42.8596 48.6124L42.4194 48.8009C41.5069 49.1919 40.2117 50.001 39.3643 50.7097C36.8767 52.7902 35.2528 55.7032 34.7484 58.9902C34.623 59.8071 34.5974 61.5932 34.6998 62.3858C34.9088 64.0036 35.3415 65.4008 36.082 66.8486C37.7212 70.0533 40.5805 72.4072 44.0975 73.4472C44.6536 73.6116 45.3434 73.7598 46.0577 73.8682C46.7056 73.9665 49.0022 73.9515 49.6663 73.8445C51.8434 73.4937 53.9373 72.6362 55.5668 71.4279C55.7832 71.2674 55.9748 71.1428 55.9926 71.151C56.0105 71.1591 56.3108 71.3565 56.6601 71.5897C61.4233 74.7691 67.7503 74.4659 72.2513 70.8426C72.8073 70.395 73.8554 69.3285 74.2933 68.7646C75.7026 66.9501 76.6062 64.8446 76.961 62.5486C77.1149 61.5517 77.1146 59.7854 76.9602 58.7789C76.7156 57.1847 76.19 55.6228 75.4504 54.2927C74.7956 53.115 74.1496 52.2668 73.1526 51.2753C72.1044 50.233 71.0029 49.4542 69.6145 48.7738L68.9925 48.469L69.0297 48.0541C69.0899 47.384 69.0638 45.9911 68.9784 45.3107C68.6873 42.9922 67.8328 40.8731 66.4255 38.9804C65.8404 38.1933 64.6188 36.9678 63.834 36.3806C62.0451 35.0419 60.0637 34.2082 57.8439 33.8599C57.253 33.7672 55.1334 33.7234 54.5319 33.7915ZM57.3163 34.4921C59.6872 34.7695 61.8819 35.6918 63.7613 37.2007C64.3538 37.6764 65.249 38.5843 65.7075 39.1744C67.1264 41.0009 68.0364 43.1935 68.2957 45.4106C68.4095 46.3832 68.388 47.9914 68.2507 48.784C68.2301 48.903 68.2567 48.9217 68.7234 49.1171C72.4648 50.6838 75.2455 54.03 76.1263 58.0254C76.4033 59.2817 76.4787 61.0829 76.3049 62.2887C75.8915 65.1575 74.6463 67.6145 72.6052 69.5893C70.7582 71.3764 68.5341 72.4931 65.9197 72.9463C65.3628 73.0428 65.1276 73.0554 63.9068 73.0536C62.6301 73.0518 62.4707 73.0419 61.8212 72.9242C59.8052 72.5589 57.8118 71.6846 56.305 70.5049C56.1389 70.3748 55.9922 70.2684 55.9791 70.2684C55.9661 70.2684 55.6853 70.4731 55.3551 70.7233C53.6608 72.0073 51.7073 72.8288 49.5499 73.1644C48.7519 73.2885 46.8003 73.2867 45.985 73.161C42.1226 72.5658 38.8684 70.3511 36.9452 67.0089C34.2007 62.2393 34.9631 56.1655 38.8066 52.1814C40.167 50.7712 41.5718 49.8563 43.6162 49.049C43.6206 49.0473 43.5904 48.8058 43.5493 48.5123C43.4436 47.7581 43.4455 46.1208 43.553 45.335C44.1853 40.7138 47.1509 36.9211 51.4388 35.2499C52.4173 34.8686 53.8354 34.5321 54.7883 34.4552C55.3829 34.4071 56.7624 34.4273 57.3163 34.4921ZM54.7038 35.9489C52.2121 36.2662 49.9846 37.365 48.2546 39.1302C47.3878 40.0146 46.8006 40.8408 46.2547 41.944C45.1326 44.2114 44.8528 46.7999 45.4567 49.3259C45.526 49.6155 45.5749 49.8593 45.5656 49.8676C45.5562 49.8758 45.2645 49.9596 44.9175 50.0537C41.8986 50.8725 39.4333 52.9014 38.035 55.718C37.2572 57.2847 36.9251 58.7212 36.9251 60.5182C36.9251 62.3149 37.2571 63.7509 38.0349 65.3184C38.9068 67.0756 40.1242 68.4614 41.7575 69.5557C42.3425 69.9477 43.4216 70.4921 44.0815 70.7282C46.5201 71.6006 49.2877 71.5629 51.6821 70.6244C53.005 70.1059 54.2104 69.3343 55.2934 68.3127L55.6288 67.9963L56.118 68.4508C57.0285 69.2968 57.8571 69.8707 58.8867 70.3684C60.4372 71.1179 61.8635 71.4452 63.5915 71.448C65.3555 71.4508 66.8772 71.1003 68.4154 70.3368C70.6073 69.2489 72.2719 67.5792 73.3441 65.3933C73.8909 64.2785 74.2235 63.1727 74.3872 61.9249C74.4648 61.3336 74.4655 59.9543 74.3886 59.3297C73.8713 55.1307 70.9524 51.5864 66.9564 50.3055C66.653 50.2083 66.3802 50.1215 66.3502 50.1127C66.3132 50.1017 66.3332 49.9673 66.4128 49.6925C66.7574 48.5028 66.9033 46.8431 66.771 45.6177C66.2806 41.0751 63.0939 37.3667 58.6927 36.2169C57.5486 35.918 55.8452 35.8036 54.7038 35.9489ZM77.7301 69.7643C77.3092 69.917 77.0397 70.1629 76.8039 70.6095C76.633 70.9331 76.6378 71.5467 76.814 71.9177C76.9753 72.2571 77.2453 72.5272 77.5846 72.6883C77.8043 72.7926 77.9199 72.8148 78.2394 72.8138C78.7361 72.8123 79.0404 72.6838 79.3683 72.3371C79.6744 72.0133 79.7915 71.7095 79.7915 71.2386C79.7915 70.6241 79.4869 70.1331 78.929 69.8481C78.6054 69.6829 78.0597 69.6447 77.7301 69.7643ZM78.7729 70.1415C79.2245 70.355 79.4736 70.7531 79.4747 71.2628C79.4761 71.9662 78.9444 72.4977 78.2394 72.4977C77.3775 72.4977 76.8044 71.693 77.0596 70.8411C77.1343 70.5919 77.4326 70.2573 77.6927 70.1312C77.991 69.9865 78.4546 69.9909 78.7729 70.1415ZM77.8514 70.4816C77.7255 70.5369 77.1427 71.1656 77.1511 71.2371C77.1527 71.2512 77.3503 71.4265 77.5902 71.6266C77.8301 71.8267 78.111 72.062 78.2144 72.1493L78.4024 72.3082L78.5311 72.1393L78.6599 71.9705L78.4793 71.8107C78.38 71.7228 78.2744 71.6352 78.2448 71.6161C78.2087 71.5928 78.2265 71.5456 78.2985 71.4735C78.4022 71.3695 78.4174 71.3679 78.7262 71.4293L79.0463 71.493L79.1885 71.3567C79.2667 71.2817 79.3307 71.205 79.3307 71.1862C79.3307 71.1334 78.6622 70.982 78.5538 71.0103C78.4739 71.0312 78.4577 71.0112 78.4577 70.8913C78.4577 70.6959 78.3852 70.5746 78.2161 70.4872C78.0473 70.3999 78.0378 70.3998 77.8514 70.4816ZM78.0941 70.9477C78.1671 71.0284 78.1726 71.0657 78.1262 71.1674C78.0429 71.3503 77.9345 71.368 77.7889 71.2225L77.6622 71.0957L77.7774 70.9731C77.9164 70.8251 77.9786 70.8201 78.0941 70.9477ZM74.0588 72.791C73.6851 72.9778 73.2626 73.4184 73.0732 73.8188C72.8257 74.3419 72.8989 74.8458 73.2741 75.2017C73.7265 75.631 74.2742 75.6009 75.0795 75.1027C75.5171 74.8319 75.8128 74.6827 75.9117 74.6827C76.0708 74.6827 76.2678 74.829 76.3194 74.9856C76.4173 75.2822 76.22 75.6634 75.8585 75.8759C75.6175 76.0175 75.5269 76.0201 75.1721 75.8954C74.816 75.7702 74.7606 75.7729 74.5812 75.924C74.4642 76.0224 74.4319 76.0882 74.4319 76.2285C74.4319 76.4708 74.527 76.5894 74.8232 76.7168C75.4328 76.9791 76.0547 76.7985 76.6252 76.1937C77.0226 75.7724 77.1637 75.4875 77.1887 75.0561C77.2124 74.646 77.1178 74.375 76.8567 74.106C76.5791 73.82 76.3997 73.7402 76.0325 73.7394C75.6699 73.7386 75.4506 73.8263 74.7337 74.2586C74.2052 74.5773 74.0407 74.6265 73.8721 74.5161C73.6304 74.3576 73.7524 73.9143 74.1137 73.6387C74.2733 73.517 74.3132 73.508 74.5665 73.5365C74.7192 73.5537 74.9112 73.5805 74.9931 73.5959C75.2059 73.636 75.4505 73.4272 75.4505 73.2054C75.4505 72.8679 75.1364 72.6453 74.6603 72.6453C74.4129 72.6453 74.2916 72.6747 74.0588 72.791ZM38.0548 73.7476C37.6368 73.9051 34.7483 75.3067 34.6474 75.4009C34.5426 75.4988 34.514 75.5694 34.514 75.7304C34.514 75.8996 34.54 75.9571 34.6633 76.0609C34.7454 76.1299 34.8596 76.1864 34.9172 76.1864C34.9747 76.1864 35.2117 76.0962 35.4437 75.9859L35.8657 75.7854L36.4274 76.3127C36.8217 76.6827 36.9798 76.862 36.9576 76.9134C36.9403 76.9538 36.8617 77.169 36.7831 77.3916C36.6582 77.7455 36.6477 77.8145 36.6995 77.9397C36.7993 78.1804 37.0936 78.284 37.3485 78.1678C37.5078 78.0952 37.5497 78.0035 38.2706 76.1464C38.9184 74.4776 38.9601 74.3065 38.7878 74.0239C38.6457 73.7909 38.2929 73.6578 38.0548 73.7476ZM37.8607 74.7992C37.8607 74.8099 37.7624 75.0489 37.6422 75.3303C37.5221 75.6117 37.4018 75.8995 37.3751 75.9698L37.3265 76.0975L36.9611 75.7704C36.7602 75.5906 36.6137 75.4253 36.6358 75.4033C36.6864 75.3527 37.7754 74.7824 37.8244 74.7809C37.8444 74.7802 37.8607 74.7885 37.8607 74.7992ZM70.8329 75.7037C70.6017 75.9349 70.6529 76.1313 71.0931 76.7027C72.1377 78.0583 72.2969 78.2827 72.3479 78.4724C72.4162 78.7262 72.3829 78.8578 72.1967 79.0699C71.8556 79.4584 71.4729 79.5503 71.1441 79.3225C71.0446 79.2535 70.6251 78.7597 70.2121 78.2253C69.4365 77.2217 69.2754 77.0736 69.0276 77.1358C68.961 77.1525 68.851 77.2175 68.7833 77.2804C68.6353 77.4174 68.6159 77.701 68.7419 77.8856C68.9775 78.2308 70.118 79.6821 70.289 79.8542C70.9108 80.4801 71.5631 80.5117 72.3805 79.9557C73.2489 79.365 73.5209 78.6256 73.1445 77.8788C72.997 77.586 71.6802 75.8343 71.4806 75.6652C71.2867 75.501 71.0197 75.5169 70.8329 75.7037ZM40.9494 76.3823C40.8547 76.4567 39.521 78.3283 38.8947 79.2654C38.7163 79.5324 38.9431 79.9701 39.2599 79.9701C39.4823 79.9701 39.6271 79.8133 40.2859 78.8591C40.6549 78.3246 40.8973 78.0142 40.9052 78.066C40.9124 78.1128 40.9003 78.7186 40.8785 79.4123C40.8566 80.1059 40.8554 80.7804 40.8758 80.911C40.9182 81.1828 41.0506 81.3496 41.2855 81.4271C41.473 81.489 41.7114 81.3994 41.8432 81.2176C42.1299 80.8222 43.7264 78.5145 43.7713 78.4306C43.8779 78.2313 43.8397 78.0009 43.6774 77.8643C43.3421 77.5821 43.2106 77.6824 42.4127 78.8279L41.7355 79.8003L41.7699 78.2142L41.8044 76.6282L41.632 76.4558C41.4925 76.3163 41.423 76.2835 41.2673 76.2835C41.1473 76.2835 41.0278 76.3206 40.9494 76.3823ZM65.9034 78.8297C64.4849 79.3243 64.0186 80.5308 64.7217 81.8862C64.9303 82.2882 65.3868 82.7675 65.708 82.9216C66.6718 83.384 68.0739 82.8452 68.5177 81.842C68.9354 80.8975 68.3194 79.3585 67.3315 78.8782C66.9165 78.6765 66.3937 78.6587 65.9034 78.8297ZM45.4666 79.2874C44.9419 79.4926 44.5678 79.853 44.2868 80.4239C43.9758 81.0559 43.9054 81.7171 44.0925 82.2475C44.4326 83.2118 45.8204 83.8347 46.8007 83.4632C47.2157 83.3059 47.6535 82.8782 47.8967 82.3921C48.4106 81.3654 48.3165 80.4568 47.6316 79.8307C47.03 79.2809 46.088 79.0445 45.4666 79.2874ZM66.7903 79.6507C67.1919 79.8185 67.6285 80.5015 67.6772 81.038C67.7141 81.4455 67.6613 81.6457 67.4569 81.8724C67.0332 82.3424 66.4521 82.3749 65.9754 81.9552C65.4739 81.5137 65.2127 80.5983 65.4535 80.1262C65.5571 79.9232 65.7791 79.7218 65.9939 79.636C66.1725 79.5647 66.6036 79.5726 66.7903 79.6507ZM46.5653 80.0983C46.9897 80.2429 47.2703 80.6396 47.2703 81.0948C47.2703 81.6673 46.8232 82.4395 46.373 82.6446C45.8777 82.8702 45.2616 82.6332 45.0326 82.1292C44.7472 81.5007 45.2455 80.3211 45.894 80.0899C46.1434 80.001 46.2849 80.0028 46.5653 80.0983ZM62.075 80.3798C61.7815 80.4509 61.6439 80.5563 61.6061 80.7392C61.5914 80.8097 61.5457 81.3577 61.5045 81.9567C61.4633 82.5557 61.4234 83.0521 61.4157 83.0597C61.4081 83.0674 61.1754 82.6027 60.8985 82.0271C60.6004 81.4074 60.347 80.9427 60.2771 80.8877C60.1399 80.7797 60.072 80.7756 59.6487 80.8493C59.2313 80.922 59.0318 81.0903 59.0439 81.3593C59.0561 81.6277 59.6695 84.7461 59.7338 84.8661C59.87 85.1208 60.2464 85.1792 60.4316 84.9745C60.5777 84.8131 60.5664 84.6144 60.3492 83.5112C60.231 82.9109 60.1394 82.4141 60.1456 82.4071C60.1519 82.4001 60.3802 82.8694 60.653 83.45C60.9259 84.0306 61.2059 84.5654 61.2753 84.6385C61.4409 84.8125 61.6657 84.8533 61.8855 84.749C62.1669 84.6154 62.1957 84.4945 62.2639 83.1605C62.2976 82.5012 62.3339 81.9705 62.3446 81.9812C62.3553 81.9919 62.4587 82.492 62.5744 83.0926C62.69 83.6931 62.8085 84.229 62.8376 84.2833C63.0118 84.6088 63.5532 84.5294 63.6446 84.1649C63.6637 84.0888 63.5418 83.354 63.3324 82.284C63.0158 80.6657 62.9789 80.5194 62.8631 80.4188C62.7182 80.2931 62.4813 80.2814 62.075 80.3798ZM50.1205 80.577C50.0474 80.6181 49.956 80.7129 49.9173 80.7877C49.8428 80.9318 49.2104 84.1212 49.2104 84.3529C49.2104 84.4385 49.2629 84.5414 49.3522 84.6307C49.5375 84.816 49.7398 84.8189 49.9378 84.6391C50.0768 84.5128 50.0961 84.4463 50.3 83.3963C50.4185 82.7861 50.5224 82.2799 50.5309 82.2715C50.5394 82.263 50.7512 82.7623 51.0016 83.3809C51.7135 85.1397 51.7461 85.194 52.1185 85.244C52.367 85.2773 52.5282 85.1982 52.6241 84.9958C52.7007 84.8339 53.3332 81.6343 53.3332 81.4084C53.3332 81.3227 53.2807 81.2199 53.1914 81.1306C53.0038 80.943 52.7923 80.9402 52.6097 81.1228C52.4884 81.244 52.456 81.3603 52.2678 82.3476C52.1535 82.9476 52.0451 83.4551 52.0268 83.4753C52.0085 83.4956 51.7439 82.9062 51.4388 82.1656C51.1337 81.425 50.8294 80.7576 50.7627 80.6826C50.6129 80.5143 50.3181 80.4659 50.1205 80.577ZM57.0819 81.195C57.027 81.255 56.8017 81.6151 56.5812 81.9953C56.3608 82.3756 56.1646 82.6866 56.1454 82.6866C56.1261 82.6866 55.909 82.3809 55.663 82.0074C55.1931 81.2941 55.0447 81.1343 54.852 81.1343C54.6995 81.1343 54.4686 81.255 54.4303 81.3548C54.331 81.6137 54.3854 81.729 55.108 82.7904L55.6576 83.5976L55.6875 84.3184C55.704 84.7149 55.7407 85.1003 55.769 85.1749C55.8805 85.469 56.3064 85.5252 56.5387 85.2765C56.6534 85.1537 56.6554 85.1366 56.6431 84.3744L56.6306 83.5975L57.1898 82.6855C57.8348 81.6335 57.8798 81.5321 57.794 81.325C57.7195 81.145 57.6147 81.0858 57.3705 81.0858C57.2367 81.0858 57.1527 81.1176 57.0819 81.195Z" fill="white"/>
<defs>
<linearGradient id="paint0_linear_1845_142" x1="0.147461" y1="0" x2="112.014" y2="111.866" gradientUnits="userSpaceOnUse">
<stop stop-color="#8929AD"/>
<stop offset="0.544792" stop-color="#436AAC"/>
<stop offset="1" stop-color="#43B7B8"/>
</linearGradient>
</defs>
</svg>
