<svg width="113" height="112" viewBox="0 0 113 112" fill="none" xmlns="http://www.w3.org/2000/svg">
<rect x="0.611816" width="112" height="112" rx="13.4183" fill="white"/>
<path fill-rule="evenodd" clip-rule="evenodd" d="M52.592 24.8942C47.6075 30.1582 47.0397 40.6188 51.3827 47.1615L54.7145 52.1789L55.1479 43.936C55.6796 33.8123 58.3265 32.9335 58.3265 42.8809C58.3265 49.5569 56.4251 55.2424 53.4763 57.3755C52.7958 57.8686 52.959 58.713 53.8375 59.252C54.7174 59.791 55.4369 61.484 55.4369 63.0151C55.4369 64.5461 56.087 65.7976 56.8817 65.7976C57.6763 65.7976 58.3265 64.6364 58.3265 63.2172C58.3265 61.798 59.1067 59.8627 60.0602 58.9165C61.4082 57.579 61.4082 57.1963 60.0602 57.1963C57.2934 57.1963 58.039 53.4447 61.9385 47.742C66.9158 40.4639 66.8653 31.7279 61.8099 25.7686C57.2949 20.4445 56.8455 20.4029 52.592 24.8942ZM31.9588 45.219C28.143 46.3042 28.9189 51.1754 33.6535 55.8731C36.9405 59.1344 39.1828 60.0634 43.7672 60.0634C51.049 60.0634 51.2628 58.4865 44.4217 55.2495C37.6224 52.0327 38.9011 50.7425 45.9806 53.6769C48.9685 54.9169 51.7165 55.6323 52.0835 55.2667C52.4519 54.9012 50.919 52.5831 48.6766 50.116C44.6182 45.6476 37.6426 43.6048 31.9588 45.219ZM71.3297 45.3065C67.9417 46.5364 62.6609 51.7588 62.6609 53.8819C62.6609 55.4359 63.6636 55.3857 67.9402 53.6124C74.9042 50.7253 76.0571 52.0728 69.3417 55.2495C62.5598 58.4578 62.7042 60.0634 69.7737 60.0634C80.0101 60.0634 89.7192 48.5778 81.9577 45.6491C78.064 44.1811 74.7308 44.0736 71.3297 45.3065ZM32.32 70.815C30.3334 71.9418 25.8689 72.8865 22.3985 72.9151C16.8837 72.9596 16.1815 73.3137 16.8216 75.7392C17.2666 77.4279 16.6857 78.8443 15.3377 79.3575C10.5728 81.1724 15.5299 81.9049 30.9315 81.6612C46.4733 81.4161 47.1249 81.5293 50.4321 85.0702C52.3146 87.0857 55.2158 88.7343 56.8817 88.7343C58.5475 88.7343 61.4487 87.0857 63.3313 85.0702C66.6384 81.5293 67.29 81.4161 82.8318 81.6612C98.2334 81.9049 103.191 81.1724 98.4256 79.3575C97.0776 78.8443 96.4968 77.4279 96.9418 75.7392C97.5659 73.371 96.9028 72.9653 92.4022 72.9653C89.5025 72.9653 84.7953 71.9977 81.9433 70.815C75.196 68.0181 64.175 68.0583 60.0935 70.8967C57.1865 72.9166 56.5768 72.9166 53.6699 70.8967C49.6345 68.0912 37.2063 68.0439 32.32 70.815ZM54.0513 73.7351C56.7415 76.1506 57.0189 76.1535 59.6586 73.7824C64.0956 69.7986 72.461 69.4287 81.1356 72.8349C85.3371 74.4834 90.0501 75.8324 91.6105 75.8324C93.1708 75.8324 94.4466 76.4775 94.4466 77.2659C94.4466 78.1332 88.2628 78.6995 78.7864 78.6995C63.483 78.6995 63.0871 78.7812 61.479 82.2834C59.1457 87.3638 54.2044 86.7962 52.1254 81.2082C51.3148 79.0263 49.1158 78.6995 35.2544 78.6995C25.593 78.6995 19.3167 78.1347 19.3167 77.2659C19.3167 76.4775 20.7789 75.7966 22.5675 75.7521C24.3562 75.7077 28.7441 74.4189 32.32 72.8879C40.0266 69.5879 49.8585 69.9706 54.0513 73.7351Z" fill="#FC4C4C"/>
</svg>
