<svg width="112" height="112" viewBox="0 0 112 112" fill="none" xmlns="http://www.w3.org/2000/svg">
<rect x="0.0136719" width="111.866" height="111.866" rx="13.4023" fill="#9694FF"/>
<path d="M70.8477 55.1683C70.8477 67.0063 61.4423 76.5786 49.8698 76.5786C38.2974 76.5786 28.892 67.0063 28.892 55.1683C28.892 43.3304 38.2974 33.7581 49.8698 33.7581C61.4423 33.7581 70.8477 43.3304 70.8477 55.1683Z" stroke="white" stroke-width="1.43438"/>
<path d="M50.0575 51.3707L67.825 91.3943H32.29L50.0575 51.3707Z" fill="white"/>
<path d="M41.9846 79.7508C41.9846 79.3925 42.0508 79.0425 42.1831 78.7008C42.3208 78.3535 42.5193 78.0394 42.7783 77.7583C43.0374 77.4772 43.3516 77.2539 43.7209 77.0886C44.0957 76.9177 44.5173 76.8323 44.9858 76.8323C45.548 76.8323 46.0386 76.9508 46.4575 77.1878C46.8764 77.4193 47.1878 77.728 47.3918 78.1138L46.1599 78.9902C46.0882 78.7973 45.9835 78.6484 45.8457 78.5437C45.7134 78.439 45.5673 78.3673 45.4075 78.3287C45.2532 78.2847 45.1016 78.2626 44.9528 78.2626C44.7213 78.2626 44.5201 78.3095 44.3492 78.4032C44.1839 78.4913 44.0461 78.6099 43.9358 78.7587C43.8311 78.9075 43.7512 79.0728 43.6961 79.2547C43.6464 79.4366 43.6216 79.6185 43.6216 79.8004C43.6216 80.0044 43.652 80.2 43.7126 80.3874C43.7732 80.5748 43.8614 80.7429 43.9772 80.8918C44.0929 81.0351 44.2335 81.1481 44.3988 81.2307C44.5697 81.3134 44.7598 81.3548 44.9693 81.3548C45.1181 81.3548 45.2697 81.3327 45.424 81.2886C45.5784 81.239 45.7189 81.1618 45.8457 81.0571C45.9725 80.9524 46.0689 80.8118 46.1351 80.6355L47.4496 81.4209C47.3339 81.7075 47.141 81.9528 46.8709 82.1567C46.6008 82.3607 46.2949 82.5178 45.9532 82.628C45.6114 82.7327 45.2724 82.7851 44.9362 82.7851C44.5008 82.7851 44.1012 82.6996 43.7374 82.5288C43.3791 82.3524 43.0677 82.1209 42.8031 81.8343C42.5441 81.5422 42.3429 81.217 42.1996 80.8587C42.0563 80.4949 41.9846 80.1256 41.9846 79.7508ZM48.0235 82.7355V76.8653H49.6357V81.33H52.2979V82.7355H48.0235ZM54.2157 76.8653H56.0181L57.8866 82.7355H56.2496L55.8941 81.5863H54.3315L53.9842 82.7355H52.3389L54.2157 76.8653ZM55.6378 80.5114L55.1169 78.4445L54.5712 80.5114H55.6378Z" fill="#121212"/>
<path d="M78.4886 38.6935C78.7818 38.6935 79.0377 38.774 79.2561 38.935C79.4804 39.1018 79.6529 39.3317 79.7736 39.625C79.8943 39.9182 79.9547 40.2545 79.9547 40.634C79.9547 40.8237 79.9403 41.0163 79.9116 41.2118C79.8828 41.4073 79.8368 41.5769 79.7736 41.7206L80.0151 41.7206C80.3025 41.7206 80.5239 41.6344 80.6791 41.4619C80.8344 41.2952 80.912 41.0451 80.912 40.7116C80.912 40.4644 80.8689 40.2286 80.7826 40.0044C80.6964 39.7802 80.5699 39.5445 80.4032 39.2972L81.1621 38.9264C81.3576 39.2254 81.5042 39.5301 81.6019 39.8406C81.6997 40.1568 81.7485 40.4874 81.7485 40.8323C81.7485 41.4763 81.5875 41.9765 81.2656 42.3329C80.9436 42.6952 80.4837 42.8763 79.8857 42.8763L78.4455 42.8763C78.3247 42.8763 78.2385 42.8964 78.1868 42.9366C78.135 42.9826 78.1034 43.0545 78.0919 43.1522L77.1519 43.1522C77.1346 43.0487 77.1202 42.9539 77.1087 42.8676C77.0972 42.7871 77.0915 42.7182 77.0915 42.6607C77.0915 42.4307 77.1432 42.2553 77.2467 42.1346C77.3502 42.0196 77.4767 41.9477 77.6262 41.919L77.859 41.8931C77.6061 41.6976 77.4106 41.4533 77.2726 41.1601C77.1346 40.8668 77.0656 40.5679 77.0656 40.2631C77.0656 39.9642 77.126 39.6939 77.2467 39.4525C77.3732 39.2167 77.5428 39.0299 77.7555 38.8919C77.974 38.7597 78.2184 38.6935 78.4886 38.6935ZM78.2557 41.505C78.3247 41.5683 78.3937 41.62 78.4627 41.6603C78.5317 41.7005 78.595 41.7206 78.6525 41.7206L79.1095 41.7206C79.167 41.5826 79.2102 41.4332 79.2389 41.2722C79.2734 41.1112 79.2906 40.9588 79.2906 40.8151C79.2906 40.5161 79.2245 40.2689 79.0923 40.0734C78.9658 39.8837 78.7962 39.7888 78.5835 39.7888C78.4685 39.7888 78.3592 39.8204 78.2557 39.8837C78.1523 39.9469 78.0689 40.0389 78.0056 40.1597C77.9424 40.2804 77.9108 40.4241 77.9108 40.5909C77.9108 40.7633 77.9424 40.933 78.0056 41.0997C78.0746 41.2664 78.158 41.4015 78.2557 41.505ZM77.1519 48.1561L77.1519 47.0005L79.6874 47.0005C80.0496 47.0005 80.314 46.9372 80.4808 46.8108C80.6475 46.6843 80.7309 46.5089 80.7309 46.2847C80.7309 46.1295 80.6906 45.9713 80.6101 45.8104C80.5296 45.6551 80.4175 45.5143 80.2738 45.3878C80.1358 45.2613 79.9748 45.1693 79.7908 45.1118L77.1519 45.1118L77.1519 43.9562L81.6709 43.9562L81.6709 44.9997L80.8344 44.9997C81.0298 45.1147 81.1937 45.2613 81.3259 45.4395C81.4639 45.6178 81.5674 45.8219 81.6364 46.0518C81.7112 46.2876 81.7485 46.5348 81.7485 46.7935C81.7485 47.0752 81.6968 47.3052 81.5933 47.4834C81.4956 47.6674 81.3604 47.8054 81.188 47.8974C81.0212 47.9951 80.8315 48.0613 80.6188 48.0958C80.406 48.136 80.1904 48.1561 79.972 48.1561L77.1519 48.1561ZM77.0656 51.248C77.0656 50.8801 77.126 50.5495 77.2467 50.2562C77.3732 49.963 77.5457 49.7129 77.7642 49.5059C77.9826 49.3047 78.2327 49.1495 78.5145 49.0402C78.7962 48.931 79.0923 48.8764 79.4028 48.8764C79.719 48.8764 80.0179 48.931 80.2997 49.0402C80.5814 49.1495 80.8315 49.3047 81.05 49.5059C81.2684 49.7129 81.4381 49.963 81.5588 50.2562C81.6853 50.5495 81.7485 50.8801 81.7485 51.248C81.7485 51.616 81.6853 51.9437 81.5588 52.2312C81.4381 52.5244 81.2684 52.7745 81.05 52.9815C80.8315 53.1885 80.5814 53.3437 80.2997 53.4472C80.0179 53.5564 79.719 53.611 79.4028 53.611C79.0923 53.611 78.7962 53.5564 78.5145 53.4472C78.2327 53.3437 77.9826 53.1885 77.7642 52.9815C77.5457 52.7802 77.3732 52.533 77.2467 52.2398C77.126 51.9466 77.0656 51.616 77.0656 51.248ZM79.4028 50.0665C79.1383 50.0665 78.9026 50.1183 78.6956 50.2217C78.4943 50.3252 78.3362 50.4661 78.2212 50.6443C78.1063 50.8226 78.0488 51.0238 78.0488 51.248C78.0488 51.4665 78.1063 51.6649 78.2212 51.8431C78.342 52.0213 78.503 52.1622 78.7042 52.2657C78.9112 52.3749 79.1469 52.4295 79.4114 52.4295C79.6701 52.4295 79.903 52.3749 80.1099 52.2657C80.3169 52.1622 80.4779 52.0213 80.5929 51.8431C80.7079 51.6649 80.7654 51.4665 80.7654 51.248C80.7654 51.0238 80.705 50.8226 80.5843 50.6443C80.4693 50.4661 80.3083 50.3252 80.1013 50.2217C79.9001 50.1183 79.6672 50.0665 79.4028 50.0665ZM77.1519 58.591L77.1519 57.4354L79.6874 57.4354C80.0496 57.4354 80.314 57.3721 80.4808 57.2456C80.6475 57.1192 80.7309 56.9438 80.7309 56.7196C80.7309 56.5643 80.6906 56.4062 80.6101 56.2452C80.5296 56.09 80.4175 55.9491 80.2738 55.8227C80.1358 55.6962 79.9748 55.6042 79.7908 55.5467L77.1519 55.5467L77.1519 54.391L81.6709 54.391L81.6709 55.4346L80.8344 55.4346C81.0298 55.5496 81.1937 55.6962 81.3259 55.8744C81.4639 56.0526 81.5674 56.2567 81.6364 56.4867C81.7112 56.7224 81.7485 56.9697 81.7485 57.2284C81.7485 57.5101 81.6968 57.7401 81.5933 57.9183C81.4956 58.1023 81.3604 58.2403 81.188 58.3323C81.0212 58.43 80.8315 58.4961 80.6188 58.5306C80.406 58.5709 80.1904 58.591 79.972 58.591L77.1519 58.591ZM76.2722 59.6149C76.2492 59.7184 76.2291 59.8133 76.2118 59.8995C76.1946 59.9915 76.1859 60.0691 76.1859 60.1324C76.1859 60.2416 76.2147 60.3307 76.2722 60.3997C76.3239 60.4745 76.4217 60.5463 76.5654 60.6153C76.7034 60.6843 76.8989 60.7562 77.1519 60.8309L81.6709 59.0457L81.6709 60.2445L78.3334 61.4605L81.6709 62.5299L81.6709 63.6338L76.2549 61.7365C76.0537 61.6675 75.8726 61.5611 75.7116 61.4174C75.5449 61.2794 75.4155 61.104 75.3235 60.8913C75.2258 60.6843 75.1769 60.4515 75.1769 60.1927C75.1769 60.1008 75.1855 60.0088 75.2028 59.9168C75.2143 59.8248 75.2373 59.7242 75.2718 59.6149L76.2722 59.6149ZM77.1519 71.2817L77.1519 70.1261L79.6874 70.1261C80.0438 70.1261 80.3054 70.0628 80.4722 69.9363C80.6446 69.8156 80.7309 69.646 80.7309 69.4275C80.7309 69.2033 80.6418 68.9877 80.4635 68.7807C80.291 68.5795 80.0639 68.4357 79.7822 68.3495L77.1519 68.3495L77.1519 67.1939L79.6874 67.1939C80.0496 67.1939 80.314 67.1306 80.4808 67.0041C80.6475 66.8834 80.7309 66.7138 80.7309 66.4953C80.7309 66.2711 80.6446 66.0555 80.4722 65.8485C80.2997 65.6473 80.0726 65.5035 79.7908 65.4173L77.1519 65.4173L77.1519 64.2617L81.6709 64.2617L81.6709 65.3052L80.8344 65.3052C81.1276 65.4777 81.3518 65.7076 81.507 65.9951C81.668 66.2826 81.7485 66.6132 81.7485 66.9869C81.7485 67.3606 81.6565 67.6509 81.4726 67.8579C81.2886 68.0707 81.0615 68.2058 80.7912 68.2633C81.1017 68.4472 81.3374 68.6801 81.4984 68.9618C81.6652 69.2493 81.7485 69.5713 81.7485 69.9277C81.7485 70.2094 81.6968 70.4366 81.5933 70.609C81.4956 70.7873 81.3604 70.9253 81.188 71.023C81.0212 71.1207 80.8315 71.1869 80.6188 71.2213C80.406 71.2616 80.1904 71.2817 79.972 71.2817L77.1519 71.2817ZM77.0656 74.3749C77.0656 74.0069 77.126 73.6763 77.2467 73.3831C77.3732 73.0899 77.5457 72.8398 77.7642 72.6328C77.9826 72.4316 78.2327 72.2763 78.5145 72.1671C78.7962 72.0579 79.0923 72.0032 79.4028 72.0032C79.719 72.0032 80.0179 72.0579 80.2997 72.1671C80.5814 72.2763 80.8315 72.4316 81.05 72.6328C81.2684 72.8398 81.4381 73.0899 81.5588 73.3831C81.6853 73.6763 81.7485 74.0069 81.7485 74.3749C81.7485 74.7429 81.6853 75.0706 81.5588 75.358C81.4381 75.6513 81.2684 75.9014 81.05 76.1083C80.8315 76.3153 80.5814 76.4706 80.2997 76.574C80.0179 76.6833 79.719 76.7379 79.4028 76.7379C79.0923 76.7379 78.7962 76.6833 78.5145 76.574C78.2327 76.4706 77.9826 76.3153 77.7642 76.1083C77.5457 75.9071 77.3732 75.6599 77.2467 75.3667C77.126 75.0734 77.0656 74.7429 77.0656 74.3749ZM79.4028 73.1934C79.1383 73.1934 78.9026 73.2451 78.6956 73.3486C78.4943 73.4521 78.3362 73.593 78.2212 73.7712C78.1063 73.9494 78.0488 74.1507 78.0488 74.3749C78.0488 74.5934 78.1063 74.7917 78.2212 74.97C78.342 75.1482 78.503 75.289 78.7042 75.3925C78.9112 75.5018 79.1469 75.5564 79.4114 75.5564C79.6701 75.5564 79.903 75.5018 80.1099 75.3925C80.3169 75.289 80.4779 75.1482 80.5929 74.97C80.7079 74.7917 80.7654 74.5934 80.7654 74.3749C80.7654 74.1507 80.705 73.9494 80.5843 73.7712C80.4693 73.593 80.3083 73.4521 80.1013 73.3486C79.9001 73.2451 79.6672 73.1934 79.4028 73.1934ZM78.8422 77.4748L81.6709 77.4748L81.6709 78.6304L79.0923 78.6304C78.7473 78.6304 78.4857 78.6937 78.3075 78.8202C78.135 78.9467 78.0488 79.1335 78.0488 79.3807C78.0488 79.5302 78.0775 79.6768 78.135 79.8206C78.1983 79.9701 78.2902 80.1052 78.411 80.2259C78.5317 80.3524 78.6841 80.4588 78.8681 80.545L81.6709 80.545L81.6709 81.7006L78.4455 81.7006C78.3247 81.7006 78.2385 81.7208 78.1868 81.761C78.135 81.807 78.1034 81.8789 78.0919 81.9766L77.1519 81.9766C77.1346 81.8616 77.1231 81.7639 77.1174 81.6834C77.1059 81.6086 77.1001 81.5396 77.1001 81.4764C77.1001 81.2694 77.1461 81.0998 77.2381 80.9676C77.3358 80.8411 77.4681 80.7664 77.6348 80.7434L77.997 80.7175C77.6923 80.5163 77.4594 80.2575 77.2985 79.9413C77.1432 79.6251 77.0656 79.2772 77.0656 78.8978C77.0656 78.4321 77.2151 78.0785 77.5141 77.837C77.8188 77.5955 78.2615 77.4748 78.8422 77.4748ZM77.0656 84.5135C77.0656 84.1283 77.1289 83.7603 77.2553 83.4096C77.3818 83.0589 77.5687 82.7571 77.8159 82.5041L78.5662 82.9181C78.3477 83.1883 78.1868 83.4527 78.0833 83.7115C77.9798 83.9759 77.928 84.2289 77.928 84.4704C77.928 84.6946 77.9683 84.8729 78.0488 85.0051C78.1293 85.1431 78.25 85.2121 78.411 85.2121C78.5202 85.2121 78.6036 85.1747 78.6611 85.1C78.7243 85.0252 78.7789 84.916 78.8249 84.7722C78.8709 84.6343 78.9227 84.4647 78.9802 84.2634C79.0894 83.93 79.1958 83.6511 79.2993 83.4269C79.4028 83.2026 79.5321 83.033 79.6874 82.9181C79.8483 82.8088 80.0524 82.7542 80.2997 82.7542C80.5986 82.7542 80.8545 82.8289 81.0672 82.9784C81.2857 83.1337 81.4553 83.3464 81.576 83.6166C81.6968 83.8926 81.7571 84.2145 81.7571 84.5825C81.7571 84.9045 81.7054 85.2092 81.6019 85.4967C81.5042 85.7841 81.3432 86.0457 81.119 86.2815L80.3859 85.8158C80.5641 85.5858 80.6935 85.3673 80.774 85.1603C80.8602 84.9534 80.9034 84.7435 80.9034 84.5308C80.9034 84.41 80.889 84.295 80.8602 84.1858C80.8315 84.0823 80.7826 83.9961 80.7136 83.9271C80.6504 83.8638 80.5584 83.8322 80.4377 83.8322C80.3284 83.8322 80.2422 83.861 80.1789 83.9185C80.1214 83.9817 80.0697 84.0737 80.0237 84.1944C79.9777 84.3209 79.926 84.4733 79.8685 84.6515C79.765 85.0137 79.6586 85.3184 79.5494 85.5657C79.4401 85.8186 79.305 86.0084 79.144 86.1349C78.9888 86.2613 78.7732 86.3246 78.4972 86.3246C78.0488 86.3246 77.698 86.1607 77.4451 85.833C77.1921 85.5053 77.0656 85.0655 77.0656 84.5135Z" fill="white"/>
<path d="M31.9258 29.7838C31.5578 29.7838 31.2272 29.7234 30.934 29.6026C30.6408 29.4762 30.3907 29.3037 30.1837 29.0852C29.9767 28.861 29.8157 28.608 29.7007 28.3263C29.5915 28.0445 29.5369 27.7485 29.5369 27.438C29.5369 27.0125 29.6318 26.6244 29.8215 26.2737C30.017 25.9173 30.2929 25.6327 30.6494 25.4199C31.0059 25.2072 31.4284 25.1008 31.9172 25.1008C32.4059 25.1008 32.8256 25.2072 33.1763 25.4199C33.527 25.6327 33.7886 25.9115 33.9611 26.2565L32.8313 26.6014C32.7336 26.4347 32.6042 26.3082 32.4432 26.222C32.2822 26.13 32.104 26.084 31.9085 26.084C31.69 26.084 31.4888 26.1415 31.3048 26.2565C31.1266 26.3657 30.9857 26.5238 30.8823 26.7308C30.7788 26.932 30.727 27.1678 30.727 27.438C30.727 27.7025 30.7788 27.9382 30.8823 28.1452C30.9915 28.3464 31.1352 28.5074 31.3135 28.6281C31.4917 28.7431 31.69 28.8006 31.9085 28.8006C32.0465 28.8006 32.1759 28.7776 32.2966 28.7316C32.4231 28.6856 32.5352 28.6224 32.633 28.5419C32.7307 28.4614 32.8026 28.3694 32.8486 28.2659L33.9783 28.6109C33.8748 28.8351 33.7225 29.0363 33.5212 29.2146C33.3258 29.3928 33.0929 29.5337 32.8227 29.6371C32.5582 29.7349 32.2592 29.7838 31.9258 29.7838ZM34.6808 23.4019H35.8364V28.2487C35.8364 28.4556 35.8709 28.5965 35.9399 28.6712C36.0089 28.7402 36.1038 28.7747 36.2245 28.7747C36.3165 28.7747 36.4114 28.7632 36.5091 28.7402C36.6068 28.7172 36.6931 28.6885 36.7678 28.654L36.9231 29.5337C36.7678 29.6084 36.5867 29.6659 36.3797 29.7061C36.1728 29.7464 35.9859 29.7665 35.8192 29.7665C35.457 29.7665 35.1752 29.6716 34.974 29.4819C34.7785 29.2864 34.6808 29.0105 34.6808 28.654V23.4019ZM37.3834 28.0072V25.1785H38.5391V27.7571C38.5391 28.102 38.6023 28.3636 38.7288 28.5419C38.8553 28.7144 39.0422 28.8006 39.2894 28.8006C39.4389 28.8006 39.5855 28.7719 39.7292 28.7144C39.8787 28.6511 40.0138 28.5591 40.1346 28.4384C40.261 28.3176 40.3674 28.1653 40.4536 27.9813V25.1785H41.6093V28.4039C41.6093 28.5246 41.6294 28.6109 41.6696 28.6626C41.7156 28.7144 41.7875 28.746 41.8853 28.7575V29.6975C41.7703 29.7148 41.6725 29.7263 41.592 29.732C41.5173 29.7435 41.4483 29.7493 41.3851 29.7493C41.1781 29.7493 41.0085 29.7033 40.8762 29.6113C40.7497 29.5135 40.675 29.3813 40.652 29.2146L40.6261 28.8523C40.4249 29.1571 40.1662 29.3899 39.85 29.5509C39.5337 29.7061 39.1859 29.7838 38.8064 29.7838C38.3407 29.7838 37.9871 29.6343 37.7457 29.3353C37.5042 29.0306 37.3834 28.5879 37.3834 28.0072ZM45.4488 29.4647C45.3511 29.5049 45.2332 29.5509 45.0953 29.6026C44.9573 29.6544 44.8078 29.6946 44.6468 29.7234C44.4916 29.7579 44.3335 29.7751 44.1725 29.7751C43.9597 29.7751 43.7643 29.7378 43.586 29.663C43.4078 29.5883 43.2641 29.4704 43.1548 29.3094C43.0513 29.1427 42.9996 28.9271 42.9996 28.6626V26.0667H42.4045V25.1785H42.9996V23.7124H44.1552V25.1785H45.1039V26.0667H44.1552V28.2745C44.161 28.4298 44.2041 28.5419 44.2846 28.6109C44.3651 28.6799 44.4657 28.7144 44.5864 28.7144C44.7072 28.7144 44.825 28.6942 44.94 28.654C45.055 28.6137 45.147 28.5792 45.216 28.5505L45.4488 29.4647ZM48.7419 29.4647C48.6441 29.5049 48.5263 29.5509 48.3883 29.6026C48.2503 29.6544 48.1008 29.6946 47.9398 29.7234C47.7846 29.7579 47.6265 29.7751 47.4655 29.7751C47.2528 29.7751 47.0573 29.7378 46.879 29.663C46.7008 29.5883 46.5571 29.4704 46.4478 29.3094C46.3443 29.1427 46.2926 28.9271 46.2926 28.6626V26.0667H45.6975V25.1785H46.2926V23.7124H47.4482V25.1785H48.3969V26.0667H47.4482V28.2745C47.454 28.4298 47.4971 28.5419 47.5776 28.6109C47.6581 28.6799 47.7587 28.7144 47.8794 28.7144C48.0002 28.7144 48.118 28.6942 48.233 28.654C48.348 28.6137 48.44 28.5792 48.509 28.5505L48.7419 29.4647ZM51.3889 29.7838C51.0266 29.7838 50.6989 29.7234 50.4057 29.6026C50.1125 29.4762 49.8624 29.3065 49.6554 29.0938C49.4484 28.8753 49.2874 28.6281 49.1725 28.3521C49.0632 28.0704 49.0086 27.7743 49.0086 27.4639C49.0086 27.0326 49.1035 26.6388 49.2932 26.2823C49.4887 25.9259 49.7646 25.6413 50.1211 25.4286C50.4833 25.2101 50.9088 25.1008 51.3975 25.1008C51.8919 25.1008 52.3145 25.2101 52.6652 25.4286C53.016 25.6413 53.2833 25.9259 53.4673 26.2823C53.657 26.6331 53.7519 27.0125 53.7519 27.4207C53.7519 27.4897 53.749 27.5616 53.7433 27.6363C53.7375 27.7053 53.7318 27.7628 53.726 27.8088H50.2332C50.2562 28.0388 50.3223 28.24 50.4316 28.4125C50.5466 28.585 50.6903 28.7172 50.8628 28.8092C51.041 28.8955 51.2308 28.9386 51.432 28.9386C51.662 28.9386 51.8776 28.884 52.0788 28.7747C52.2858 28.6597 52.4266 28.5103 52.5014 28.3263L53.4932 28.6022C53.3839 28.8322 53.2258 29.0363 53.0188 29.2146C52.8176 29.3928 52.579 29.5337 52.303 29.6371C52.0271 29.7349 51.7223 29.7838 51.3889 29.7838ZM50.2074 27.0758H52.5704C52.5474 26.8458 52.4813 26.6474 52.372 26.4807C52.2685 26.3082 52.1305 26.176 51.9581 26.084C51.7856 25.9863 51.593 25.9374 51.3802 25.9374C51.1733 25.9374 50.9835 25.9863 50.811 26.084C50.6443 26.176 50.5063 26.3082 50.3971 26.4807C50.2936 26.6474 50.2304 26.8458 50.2074 27.0758ZM57.1466 26.1789C56.7959 26.1789 56.4826 26.2478 56.2066 26.3858C55.9306 26.5181 55.7323 26.7107 55.6115 26.9637V29.6975H54.4559V25.1785H55.5167V26.1444C55.6776 25.8339 55.8818 25.5895 56.129 25.4113C56.3762 25.2331 56.6378 25.1353 56.9138 25.1181C56.977 25.1181 57.0259 25.1181 57.0604 25.1181C57.0949 25.1181 57.1236 25.121 57.1466 25.1267V26.1789ZM59.8277 29.7838C59.4655 29.7838 59.1378 29.7234 58.8446 29.6026C58.5514 29.4762 58.3013 29.3065 58.0943 29.0938C57.8873 28.8753 57.7263 28.6281 57.6113 28.3521C57.5021 28.0704 57.4475 27.7743 57.4475 27.4639C57.4475 27.0326 57.5423 26.6388 57.7321 26.2823C57.9275 25.9259 58.2035 25.6413 58.56 25.4286C58.9222 25.2101 59.3477 25.1008 59.8364 25.1008C60.3308 25.1008 60.7534 25.2101 61.1041 25.4286C61.4548 25.6413 61.7222 25.9259 61.9061 26.2823C62.0959 26.6331 62.1907 27.0125 62.1907 27.4207C62.1907 27.4897 62.1879 27.5616 62.1821 27.6363C62.1764 27.7053 62.1706 27.7628 62.1649 27.8088H58.6721C58.6951 28.0388 58.7612 28.24 58.8704 28.4125C58.9854 28.585 59.1292 28.7172 59.3017 28.8092C59.4799 28.8955 59.6696 28.9386 59.8709 28.9386C60.1008 28.9386 60.3164 28.884 60.5177 28.7747C60.7246 28.6597 60.8655 28.5103 60.9402 28.3263L61.932 28.6022C61.8228 28.8322 61.6647 29.0363 61.4577 29.2146C61.2565 29.3928 61.0179 29.5337 60.7419 29.6371C60.4659 29.7349 60.1612 29.7838 59.8277 29.7838ZM58.6462 27.0758H61.0092C60.9862 26.8458 60.9201 26.6474 60.8109 26.4807C60.7074 26.3082 60.5694 26.176 60.3969 26.084C60.2244 25.9863 60.0318 25.9374 59.8191 25.9374C59.6121 25.9374 59.4224 25.9863 59.2499 26.084C59.0832 26.176 58.9452 26.3082 58.836 26.4807C58.7325 26.6474 58.6692 26.8458 58.6462 27.0758ZM65.5855 26.1789C65.2348 26.1789 64.9214 26.2478 64.6455 26.3858C64.3695 26.5181 64.1711 26.7107 64.0504 26.9637V29.6975H62.8948V25.1785H63.9555V26.1444C64.1165 25.8339 64.3206 25.5895 64.5678 25.4113C64.8151 25.2331 65.0767 25.1353 65.3526 25.1181C65.4159 25.1181 65.4648 25.1181 65.4993 25.1181C65.5337 25.1181 65.5625 25.121 65.5855 25.1267V26.1789ZM67.8943 29.7838C67.5091 29.7838 67.1412 29.7205 66.7905 29.594C66.4397 29.4675 66.1379 29.2807 65.8849 29.0335L66.2989 28.2831C66.5691 28.5016 66.8336 28.6626 67.0923 28.7661C67.3568 28.8696 67.6097 28.9213 67.8512 28.9213C68.0754 28.9213 68.2537 28.8811 68.3859 28.8006C68.5239 28.7201 68.5929 28.5994 68.5929 28.4384C68.5929 28.3291 68.5555 28.2458 68.4808 28.1883C68.406 28.125 68.2968 28.0704 68.1531 28.0244C68.0151 27.9784 67.8455 27.9267 67.6442 27.8692C67.3108 27.76 67.0319 27.6536 66.8077 27.5501C66.5835 27.4466 66.4139 27.3172 66.2989 27.162C66.1896 27.001 66.135 26.7969 66.135 26.5497C66.135 26.2507 66.2098 25.9949 66.3592 25.7821C66.5145 25.5637 66.7272 25.3941 66.9974 25.2733C67.2734 25.1526 67.5954 25.0922 67.9633 25.0922C68.2853 25.0922 68.59 25.144 68.8775 25.2474C69.165 25.3452 69.4266 25.5062 69.6623 25.7304L69.1966 26.4635C68.9666 26.2852 68.7481 26.1559 68.5412 26.0754C68.3342 25.9891 68.1243 25.946 67.9116 25.946C67.7909 25.946 67.6759 25.9604 67.5666 25.9891C67.4631 26.0179 67.3769 26.0667 67.3079 26.1357C67.2447 26.199 67.213 26.291 67.213 26.4117C67.213 26.5209 67.2418 26.6072 67.2993 26.6704C67.3625 26.7279 67.4545 26.7797 67.5752 26.8257C67.7017 26.8717 67.8541 26.9234 68.0323 26.9809C68.3945 27.0844 68.6993 27.1908 68.9465 27.3C69.1995 27.4092 69.3892 27.5443 69.5157 27.7053C69.6422 27.8606 69.7054 28.0762 69.7054 28.3521C69.7054 28.8006 69.5416 29.1513 69.2138 29.4043C68.8861 29.6573 68.4463 29.7838 67.8943 29.7838Z" fill="white"/>
<rect x="26.6694" y="32.2833" width="46.4012" height="58.7449" stroke="white" stroke-width="0.729402"/>
</svg>
