<svg width="112" height="113" viewBox="0 0 112 113" fill="none" xmlns="http://www.w3.org/2000/svg">
<rect x="0.0136719" y="0.546143" width="111.601" height="111.601" rx="13.3706" fill="url(#paint0_linear_1845_169)"/>
<path fill-rule="evenodd" clip-rule="evenodd" d="M28.7307 27.6009C28.6226 27.7986 28.5832 29.4729 28.5861 33.7492C28.5915 42.0045 28.9928 65.3956 29.1349 65.743C29.3309 66.2221 29.5594 65.9749 29.6495 65.1861C29.7252 64.5223 30.9765 61.1213 31.8011 59.3377C31.9424 59.0318 32.1316 58.5869 32.2214 58.349C32.5381 57.5101 33.3544 55.8109 33.6168 55.4447C34.012 54.8932 34.0606 54.1827 33.9659 50.3456C33.8835 47.0076 33.8156 46.0531 33.7776 47.6989C33.7679 48.1187 33.709 48.4622 33.6467 48.4622C33.5845 48.4622 33.5568 48.1146 33.5853 47.6898C33.6216 47.1508 33.6111 47.0668 33.5505 47.4117C33.4653 47.8975 33.4626 47.8996 33.3949 47.5353L33.326 47.1645L33.307 47.5044L33.2881 47.8442H32.1521C31.2265 47.8442 31.0161 47.8786 31.0161 48.0296C31.0161 48.1532 30.8899 48.215 30.6374 48.215C30.343 48.215 30.2588 48.1601 30.2588 47.9678C30.2588 47.8319 30.2133 47.7207 30.1579 47.7207C30.1024 47.7207 30.0802 47.9153 30.1086 48.1532C30.1401 48.4179 30.1058 48.5858 30.0201 48.5858C29.9431 48.5858 29.8801 48.398 29.8801 48.1687C29.8801 47.9393 29.8376 47.5638 29.7854 47.3345C29.7035 46.9737 29.6822 47.0343 29.6277 47.7825C29.4734 49.897 29.1271 38.778 29.1244 31.6237C29.1234 28.9486 29.0768 27.3291 29.001 27.3291C28.9341 27.3291 28.8124 27.4513 28.7307 27.6009ZM40.8614 32.528C38.3275 32.5749 36.1305 32.6534 35.979 32.7023C35.8277 32.7512 35.6786 32.8552 35.6479 32.9336C35.6061 33.0402 38.3381 33.0709 46.5889 33.056C57.7652 33.0359 60.6532 33.1039 62.5714 33.4321C65.457 33.9258 68.1513 34.881 70.2078 36.1395C71.8322 37.1335 73.9029 39.0776 75.296 40.9163C76.3149 42.2612 77.0233 43.6997 77.6695 45.7359C78.3245 47.7998 78.4662 49.0689 78.4705 52.9112C78.4753 57.1041 78.0795 59.515 76.9163 62.3775C75.6227 65.5612 74.4025 67.2875 71.2856 70.3444C69.5804 72.0169 68.1525 73.0448 66.7998 73.5734C66.5221 73.682 65.9542 73.9115 65.5376 74.0834C63.8748 74.7699 63.0653 75.0229 61.3723 75.3851C58.3813 76.025 57.4649 76.074 48.3792 76.0789C43.8017 76.0814 40.2233 76.1137 40.4273 76.1507L40.7983 76.2179L40.4436 76.3094C40.0299 76.416 39.3022 76.3075 38.8159 76.0667C38.3749 75.8482 38.2851 75.3806 38.3719 73.7557C38.4557 72.1872 38.6257 71.5827 39.6697 69.1402C40.1293 68.065 40.7004 66.7126 40.9389 66.1349C41.1773 65.5571 41.4247 64.9732 41.4884 64.8372C41.7601 64.2588 44.235 57.7646 45.2092 55.074C45.5292 54.1903 45.8523 53.3283 45.9273 53.1584C46.0022 52.9885 46.1725 52.5158 46.3055 52.1079C46.5683 51.3023 47.1014 49.857 47.3537 49.2655C47.714 48.4205 47.7846 48.1062 47.5982 48.1763C47.4755 48.2224 47.4463 48.1805 47.502 48.0383C47.546 47.9261 47.5325 47.843 47.4719 47.8539C47.4114 47.8646 46.4349 47.867 45.3022 47.8588L43.2425 47.8442L43.3311 47.5708C43.407 47.3369 43.3719 47.3503 43.0883 47.6634L42.7567 48.0296L43.073 47.1027C44.3947 43.2306 46.0733 38.8889 46.4891 38.2676C46.9542 37.5725 46.6981 37.1471 46.2094 37.8029C45.6953 38.4928 44.4925 41.119 44.0159 42.5919C43.9279 42.8638 43.7541 43.3087 43.6296 43.5806C43.4181 44.0425 43.1096 44.8692 42.2464 47.2881C40.7417 51.5048 38.146 57.9823 34.57 66.4438C32.2855 71.8498 31.6693 73.316 30.8409 75.3187C29.1638 79.3733 28.6646 81.1691 28.9967 81.9543C29.3327 82.7484 28.5476 82.7091 43.1681 82.6622C55.9781 82.6209 56.517 82.6099 58.343 82.3527C62.6858 81.7412 65.0884 81.0945 68.1318 79.7181C69.0654 79.2959 69.886 78.9113 69.9554 78.8635C70.0248 78.8156 70.4792 78.5665 70.9651 78.3101C74.958 76.2024 78.1639 73.2016 80.1563 69.707C80.6548 68.8326 80.6904 68.7301 80.4948 68.7301C80.4254 68.7301 80.3686 68.8102 80.3686 68.9082C80.3686 69.0062 80.3022 69.1265 80.2209 69.1757C80.1172 69.2385 80.102 69.1947 80.1701 69.0285C80.2232 68.8983 80.2786 68.7363 80.293 68.6684C80.3075 68.6004 80.4277 68.3501 80.5602 68.1122C80.6928 67.8743 80.868 67.5128 80.9496 67.3089C81.0312 67.105 81.3073 66.4654 81.5633 65.8877C82.7782 63.145 83.9167 59.6004 84.2363 57.5656C84.3918 56.5758 84.417 55.7472 84.3556 53.6528C84.3127 52.1914 84.222 50.662 84.1541 50.2542C84.0864 49.8463 83.9951 49.1234 83.9514 48.6476C83.9077 48.1717 83.8222 47.7639 83.7612 47.7413C83.7002 47.7186 83.6504 47.6213 83.6504 47.525C83.6504 47.2646 83.3981 47.3128 83.1118 47.628C82.9404 47.8166 82.8408 47.8564 82.8024 47.7516C82.7712 47.6667 82.637 47.5971 82.5039 47.5971C82.3708 47.5971 82.2619 47.5415 82.2619 47.4735C82.2619 47.4055 82.1483 47.3499 82.0095 47.3499C81.6837 47.3499 81.6808 47.6886 82.0042 47.9634C82.2396 48.1632 82.192 48.1745 81.0098 48.2003C79.6647 48.2297 79.3504 48.1067 79.3669 47.5574C79.3738 47.3307 79.4073 47.3518 79.5791 47.6898L79.7833 48.0914H80.7701C81.3439 48.0914 81.7571 48.0396 81.7571 47.9678C81.7571 47.8959 81.34 47.8442 80.7584 47.8442H79.7597L79.6709 47.3291C79.5984 46.9096 79.5592 46.854 79.4592 47.0288C79.3433 47.2315 79.3262 47.231 79.1524 47.0187C78.9847 46.8138 78.9753 46.8323 79.0468 47.2263C79.09 47.4642 79.1532 47.7563 79.1874 47.8751C79.2217 47.994 79.2239 48.0914 79.1925 48.0914C79.0997 48.0914 78.6991 46.8179 78.6976 46.5179C78.6968 46.3663 78.6529 46.2683 78.6001 46.3003C78.5473 46.3323 78.4744 46.2478 78.4383 46.1124C78.4022 45.9772 78.4233 45.8973 78.4853 45.9347C78.5473 45.9723 78.4852 45.7453 78.3473 45.4304C78.2095 45.1154 78.0966 44.8107 78.0966 44.7534C78.0966 44.622 77.2939 42.8791 76.9304 42.2211C76.5913 41.6075 76.146 40.9584 75.7846 40.551C75.6331 40.3801 75.3395 40.0186 75.1322 39.7477C74.6691 39.1425 72.9344 37.424 72.1642 36.8076C71.8518 36.5575 71.5276 36.2968 71.4438 36.2282C71.36 36.1598 71.2567 36.1037 71.2144 36.1037C71.1723 36.1037 70.9568 35.9688 70.7358 35.8041C69.9918 35.2493 67.82 34.2441 66.4212 33.8072C63.6061 32.9278 61.8156 32.6895 56.7652 32.5219C52.7755 32.3895 48.2266 32.3913 40.8614 32.528ZM49.7525 44.8125C49.6178 44.9123 49.5767 44.9957 49.6614 44.9978C49.746 45.0001 49.7877 45.0717 49.7542 45.1573C49.7095 45.2714 49.8414 45.3012 50.2508 45.2693C51.0084 45.2104 51.5823 45.5013 51.9778 46.1447C52.1554 46.4338 52.6772 47.6712 53.1374 48.8947C53.5976 50.1182 54.3799 52.1481 54.876 53.4056C55.372 54.6631 56.0031 56.2758 56.2783 56.9896C56.5536 57.7033 56.9717 58.7877 57.2077 59.3995C57.4434 60.0112 57.8313 61.0123 58.0695 61.624C58.3077 62.2357 59.0164 64.071 59.6444 65.7023C61.1603 69.6403 61.6614 70.6898 62.254 71.1681C62.8552 71.6533 63.1358 71.7008 64.2667 71.5085C65.3357 71.3267 66.1264 71.0097 66.7052 70.5307C67.1129 70.1933 67.2588 69.8142 66.9582 69.8733C66.8473 69.8951 66.7775 69.5944 66.7215 68.8537C66.6315 67.6648 66.5004 67.2952 63.8917 60.8644C63.0133 58.6992 62.1276 56.4829 61.9233 55.9391C61.7191 55.3953 61.4406 54.7146 61.3044 54.4265C61.1682 54.1383 61.0568 53.8738 61.0568 53.8386C61.0568 53.8035 60.8522 53.2606 60.6021 52.6323C60.352 52.004 59.8384 50.7114 59.4606 49.7598C58.4075 47.1068 58.2014 46.6792 58.1 46.9379C58.0464 47.0746 58.088 47.2112 58.21 47.2985C58.4214 47.4499 58.4762 47.7207 58.2953 47.7207C58.1079 47.7207 57.9029 47.4028 57.8746 47.0683C57.8598 46.8931 57.8082 46.7736 57.7601 46.8028C57.7119 46.832 57.7005 46.9607 57.7348 47.0889C57.769 47.2172 57.7353 47.3594 57.6598 47.405C57.5843 47.4508 57.5235 47.5821 57.5245 47.6971C57.526 47.8614 57.5496 47.8702 57.6349 47.7383C57.7106 47.6214 57.7696 47.6122 57.8298 47.7074C57.8773 47.7827 57.86 47.8442 57.7913 47.8442C57.7225 47.8442 57.6417 47.9693 57.6117 48.1223L57.5569 48.4004L57.5397 48.1223C57.5235 47.8586 57.4707 47.8442 56.5128 47.8442C55.5872 47.8442 55.503 47.8236 55.503 47.5971C55.503 47.4611 55.4231 47.3499 55.3256 47.3499C55.2102 47.3499 55.1711 47.4364 55.214 47.5971C55.2628 47.7801 55.2179 47.8442 55.0407 47.8442C54.9092 47.8442 54.7196 47.733 54.6195 47.5971C54.5194 47.4611 54.3933 47.3499 54.3391 47.3499C54.2851 47.3499 54.2408 47.4611 54.2408 47.5971C54.2408 47.7618 54.325 47.8442 54.4933 47.8442C54.8238 47.8442 54.8164 48.1123 54.48 48.3179C54.334 48.4073 54.2521 48.4206 54.2981 48.3477C54.3442 48.2747 54.3217 48.215 54.2483 48.215C54.1748 48.215 54.1146 48.1384 54.1146 48.0446C54.1146 47.9509 53.9345 47.8011 53.7142 47.7119C53.494 47.6225 53.38 47.5279 53.4608 47.5015C53.5663 47.4671 53.5708 47.3861 53.4767 47.2138C53.4046 47.082 53.3876 46.9056 53.4388 46.8221C53.5111 46.7042 53.4908 46.7027 53.3478 46.8159C53.1951 46.9368 53.1231 46.8629 52.9267 46.3833C52.6393 45.6816 52.0539 45.0437 51.4801 44.8068C50.9284 44.579 50.0639 44.5818 49.7525 44.8125ZM83.3979 46.732C83.3979 46.8 83.4581 46.8556 83.5316 46.8556C83.6051 46.8556 83.6302 46.8 83.5873 46.732C83.5444 46.664 83.4843 46.6084 83.4536 46.6084C83.4229 46.6084 83.3979 46.664 83.3979 46.732ZM47.4249 47.419C47.4249 47.5249 47.4826 47.5767 47.5531 47.534C47.6237 47.4913 47.6488 47.4047 47.6088 47.3414C47.5006 47.17 47.4249 47.2018 47.4249 47.419ZM47.8035 47.5971C47.8035 47.733 47.8254 47.8442 47.8519 47.8442C47.8785 47.8442 47.93 47.733 47.9664 47.5971C48.0026 47.4611 47.9809 47.3499 47.9179 47.3499C47.855 47.3499 47.8035 47.4611 47.8035 47.5971ZM30.5112 47.9678C30.5112 48.0358 30.568 48.0914 30.6374 48.0914C30.7069 48.0914 30.7637 48.0358 30.7637 47.9678C30.7637 47.8999 30.7069 47.8442 30.6374 47.8442C30.568 47.8442 30.5112 47.8999 30.5112 47.9678ZM33.4143 48.0296C33.4143 48.1823 33.2189 48.2105 32.3099 48.1898L31.2054 48.1647L32.2468 48.1231C32.8195 48.1002 33.2881 48.028 33.2881 47.9629C33.2881 47.8976 33.3165 47.8442 33.3512 47.8442C33.3859 47.8442 33.4143 47.9277 33.4143 48.0296ZM58.4764 48.1633C58.1727 48.3809 57.7345 48.3944 57.8078 48.1841C57.8374 48.0992 57.9791 48.0462 58.1226 48.0665C58.2663 48.0867 58.4229 48.0412 58.4708 47.9655C58.5185 47.8897 58.5944 47.8639 58.6395 47.9079C58.6844 47.952 58.6111 48.0669 58.4764 48.1633ZM43.0831 48.6761C43.0413 48.717 43.0071 48.6824 43.0071 48.5991C43.0071 48.5158 42.9503 48.4819 42.8809 48.524C42.8109 48.5664 42.7547 48.4749 42.7547 48.3184V48.0364L42.9569 48.3191C43.0681 48.4745 43.1249 48.6352 43.0831 48.6761ZM58.9091 49.489C58.9101 49.544 58.8542 49.5547 58.7848 49.5126C58.7154 49.4706 58.6595 49.3422 58.6605 49.2273C58.6622 49.0472 58.6794 49.0439 58.7848 49.2037C58.8521 49.3056 58.908 49.434 58.9091 49.489ZM29.5889 49.6648C29.5569 49.785 29.5286 49.7166 29.5261 49.5126C29.5235 49.3087 29.5497 49.2104 29.5842 49.294C29.6188 49.3777 29.621 49.5445 29.5889 49.6648ZM80.8835 67.9476C80.8781 68.0271 80.8408 68.1939 80.8008 68.3184C80.7318 68.5335 80.7354 68.5339 80.8729 68.3238C80.9525 68.2023 80.9896 68.0355 80.9556 67.953C80.9107 67.8449 80.8907 67.8434 80.8835 67.9476Z" fill="url(#paint1_linear_1845_169)"/>
<path opacity="0.3" fill-rule="evenodd" clip-rule="evenodd" d="M27.3909 30.2793C27.2827 30.4771 27.2433 32.1514 27.2462 36.4277C27.2517 44.6829 27.6529 68.074 27.7951 68.4214C27.9911 68.9006 28.2195 68.6534 28.3097 67.8646C28.3854 67.2008 29.6366 63.7997 30.4612 62.0161C30.6026 61.7103 30.7918 61.2654 30.8815 61.0275C31.1982 60.1886 32.0145 58.4894 32.2769 58.1232C32.6721 57.5716 32.7207 56.8611 32.6261 53.0241C32.5436 49.686 32.4757 48.7316 32.4377 50.3774C32.428 50.7972 32.3692 51.1406 32.3068 51.1406C32.2446 51.1406 32.217 50.7931 32.2455 50.3682C32.2817 49.8293 32.2712 49.7452 32.2107 50.0902C32.1255 50.576 32.1228 50.5781 32.055 50.2138L31.9861 49.843L31.9672 50.1829L31.9482 50.5227H30.8122C29.8867 50.5227 29.6763 50.5571 29.6763 50.7081C29.6763 50.8317 29.55 50.8935 29.2976 50.8935C29.0031 50.8935 28.9189 50.8386 28.9189 50.6463C28.9189 50.5104 28.8735 50.3991 28.8181 50.3991C28.7625 50.3991 28.7403 50.5938 28.7687 50.8317C28.8003 51.0964 28.7659 51.2642 28.6802 51.2642C28.6033 51.2642 28.5403 51.0765 28.5403 50.8471C28.5403 50.6178 28.4977 50.2423 28.4456 50.0129C28.3637 49.6522 28.3424 49.7127 28.2878 50.4609C28.1336 52.5755 27.7872 41.4565 27.7846 34.3022C27.7836 31.627 27.737 30.0076 27.6611 30.0076C27.5942 30.0076 27.4726 30.1298 27.3909 30.2793ZM39.5215 35.2064C36.9876 35.2534 34.7906 35.3319 34.6392 35.3808C34.4878 35.4296 34.3388 35.5337 34.3081 35.612C34.2663 35.7187 36.9982 35.7493 45.2491 35.7345C56.4253 35.7144 59.3134 35.7823 61.2316 36.1106C64.1171 36.6043 66.8114 37.5595 68.868 38.818C70.4923 39.812 72.5631 41.7561 73.9562 43.5948C74.9751 44.9396 75.6834 46.3782 76.3297 48.4143C76.9846 50.4782 77.1264 51.7473 77.1307 55.5897C77.1355 59.7826 76.7396 62.1935 75.5765 65.056C74.2829 68.2396 73.0627 69.966 69.9458 73.0229C68.2405 74.6954 66.8127 75.7232 65.46 76.2519C65.1823 76.3604 64.6143 76.5899 64.1978 76.7618C62.5349 77.4483 61.7255 77.7013 60.0325 78.0636C57.0414 78.7035 56.125 78.7524 47.0394 78.7574C42.4618 78.7598 38.8835 78.7922 39.0874 78.8292L39.4584 78.8964L39.1037 78.9879C38.6901 79.0945 37.9623 78.986 37.4761 78.7451C37.0351 78.5266 36.9452 78.0591 37.0321 76.4342C37.1159 74.8657 37.2859 74.2612 38.3299 71.8187C38.7894 70.7435 39.3606 69.3911 39.599 68.8133C39.8375 68.2356 40.0848 67.6516 40.1486 67.5157C40.4202 66.9373 42.8952 60.443 43.8693 57.7524C44.1893 56.8688 44.5124 56.0068 44.5874 55.8369C44.6624 55.6669 44.8327 55.1942 44.9657 54.7864C45.2285 53.9807 45.7615 52.5354 46.0138 51.9439C46.3742 51.099 46.4448 50.7847 46.2583 50.8548C46.1356 50.9009 46.1065 50.859 46.1621 50.7167C46.2062 50.6045 46.1927 50.5215 46.1321 50.5324C46.0715 50.5431 45.0951 50.5455 43.9624 50.5373L41.9027 50.5227L41.9913 50.2492C42.0671 50.0154 42.0321 50.0287 41.7484 50.3419L41.4169 50.7081L41.7332 49.7812C43.0548 45.909 44.7334 41.5674 45.1492 40.9461C45.6143 40.2509 45.3582 39.8255 44.8695 40.4814C44.3554 41.1713 43.1527 43.7975 42.676 45.2703C42.5881 45.5422 42.4143 45.9871 42.2898 46.259C42.0783 46.721 41.7698 47.5476 40.9065 49.9666C39.4019 54.1833 36.8061 60.6608 33.2301 69.1223C30.9457 74.5283 30.3295 75.9945 29.5011 77.9972C27.824 82.0518 27.3248 83.8476 27.6568 84.6327C27.9928 85.4269 27.2077 85.3876 41.8282 85.3406C54.6383 85.2993 55.1771 85.2884 57.0032 85.0312C61.3459 84.4197 63.7486 83.7729 66.792 82.3966C67.7255 81.9744 68.5461 81.5898 68.6155 81.542C68.685 81.494 69.1393 81.245 69.6253 80.9886C73.6182 78.8808 76.8241 75.88 78.8165 72.3854C79.3149 71.5111 79.3505 71.4086 79.155 71.4086C79.0856 71.4086 79.0288 71.4887 79.0288 71.5867C79.0288 71.6847 78.9624 71.805 78.8811 71.8541C78.7773 71.9169 78.7622 71.8732 78.8302 71.7069C78.8834 71.5768 78.9388 71.4148 78.9532 71.3468C78.9677 71.2788 79.0879 71.0286 79.2204 70.7907C79.3529 70.5528 79.5281 70.1913 79.6098 69.9874C79.6913 69.7835 79.9675 69.1439 80.2235 68.5662C81.4384 65.8234 82.5769 62.2789 82.8965 60.244C83.052 59.2543 83.0772 58.4256 83.0157 56.3312C82.9728 54.8698 82.8822 53.3405 82.8143 52.9326C82.7465 52.5248 82.6552 51.8018 82.6116 51.326C82.5679 50.8502 82.4823 50.4424 82.4214 50.4198C82.3604 50.397 82.3105 50.2998 82.3105 50.2035C82.3105 49.9431 82.0582 49.9913 81.7719 50.3064C81.6005 50.495 81.5009 50.5348 81.4626 50.43C81.4314 50.3451 81.2971 50.2755 81.1641 50.2755C81.0309 50.2755 80.9221 50.2199 80.9221 50.152C80.9221 50.084 80.8085 50.0284 80.6697 50.0284C80.3439 50.0284 80.341 50.3671 80.6644 50.6418C80.8998 50.8417 80.8522 50.8529 79.67 50.8788C78.3248 50.9082 78.0106 50.7852 78.0271 50.2359C78.0339 50.0092 78.0675 50.0302 78.2393 50.3682L78.4435 50.7699H79.4303C80.0041 50.7699 80.4172 50.7181 80.4172 50.6463C80.4172 50.5744 80.0002 50.5227 79.4186 50.5227H78.4199L78.331 50.0076C78.2586 49.588 78.2193 49.5324 78.1194 49.7073C78.0035 49.91 77.9863 49.9095 77.8125 49.6972C77.6449 49.4923 77.6354 49.5108 77.707 49.9048C77.7502 50.1427 77.8134 50.4347 77.8476 50.5536C77.8818 50.6725 77.8841 50.7699 77.8527 50.7699C77.7599 50.7699 77.3593 49.4963 77.3577 49.1964C77.357 49.0448 77.3131 48.9468 77.2603 48.9788C77.2074 49.0108 77.1346 48.9262 77.0985 48.7909C77.0624 48.6557 77.0835 48.5758 77.1454 48.6132C77.2074 48.6508 77.1453 48.4237 77.0075 48.1088C76.8696 47.7938 76.7568 47.4892 76.7568 47.4318C76.7568 47.3005 75.954 45.5576 75.5905 44.8996C75.2515 44.286 74.8062 43.6369 74.4448 43.2295C74.2932 43.0585 73.9996 42.697 73.7924 42.4262C73.3293 41.821 71.5946 40.1025 70.8244 39.4861C70.512 39.2359 70.1877 38.9753 70.1039 38.9067C70.0201 38.8382 69.9169 38.7821 69.8746 38.7821C69.8324 38.7821 69.617 38.6473 69.396 38.4825C68.652 37.9278 66.4801 36.9225 65.0813 36.4857C62.2662 35.6062 60.4758 35.368 55.4254 35.2004C51.4357 35.068 46.8868 35.0697 39.5215 35.2064ZM48.4127 47.4909C48.278 47.5908 48.2368 47.6742 48.3215 47.6763C48.4061 47.6785 48.4479 47.7502 48.4143 47.8357C48.3696 47.9499 48.5015 47.9797 48.911 47.9478C49.6686 47.8889 50.2425 48.1798 50.638 48.8232C50.8155 49.1122 51.3373 50.3497 51.7975 51.5732C52.2578 52.7967 53.0401 54.8266 53.5361 56.084C54.0322 57.3415 54.6633 58.9543 54.9384 59.668C55.2137 60.3817 55.6319 61.4662 55.8678 62.0779C56.1036 62.6897 56.4915 63.6907 56.7296 64.3025C56.9678 64.9142 57.6766 66.7494 58.3045 68.3808C59.8204 72.3188 60.3215 73.3683 60.9141 73.8466C61.5153 74.3318 61.7959 74.3792 62.9269 74.1869C63.9958 74.0051 64.7866 73.6881 65.3653 73.2091C65.773 72.8717 65.9189 72.4927 65.6184 72.5518C65.5074 72.5735 65.4377 72.2728 65.3816 71.5322C65.2916 70.3433 65.1606 69.9737 62.5519 63.5429C61.6735 61.3777 60.7878 59.1613 60.5834 58.6175C60.3792 58.0738 60.1008 57.3931 59.9646 57.105C59.8284 56.8168 59.7169 56.5523 59.7169 56.5171C59.7169 56.482 59.5123 55.9391 59.2623 55.3108C59.0121 54.6825 58.4985 53.3899 58.1207 52.4383C57.0677 49.7853 56.8615 49.3577 56.7602 49.6163C56.7065 49.753 56.7482 49.8897 56.8701 49.977C57.0815 50.1284 57.1363 50.3991 56.9555 50.3991C56.768 50.3991 56.563 50.0813 56.5348 49.7467C56.52 49.5716 56.4684 49.4521 56.4203 49.4813C56.3721 49.5104 56.3607 49.6392 56.3949 49.7674C56.4291 49.8956 56.3954 50.0379 56.3199 50.0835C56.2444 50.1292 56.1836 50.2606 56.1846 50.3755C56.1861 50.5399 56.2097 50.5487 56.2951 50.4168C56.3708 50.2999 56.4297 50.2906 56.49 50.3859C56.5374 50.4612 56.5201 50.5227 56.4515 50.5227C56.3827 50.5227 56.3019 50.6478 56.2718 50.8008L56.2171 51.0788L56.1999 50.8008C56.1836 50.537 56.1309 50.5227 55.173 50.5227C54.2474 50.5227 54.1632 50.5021 54.1632 50.2755C54.1632 50.1396 54.0833 50.0284 53.9857 50.0284C53.8704 50.0284 53.8312 50.1149 53.8741 50.2755C53.923 50.4586 53.8781 50.5227 53.7008 50.5227C53.5693 50.5227 53.3797 50.4115 53.2796 50.2755C53.1795 50.1396 53.0535 50.0284 52.9993 50.0284C52.9453 50.0284 52.901 50.1396 52.901 50.2755C52.901 50.4403 52.9852 50.5227 53.1534 50.5227C53.484 50.5227 53.4765 50.7908 53.1402 50.9964C52.9941 51.0858 52.9122 51.0991 52.9583 51.0262C53.0043 50.9532 52.9819 50.8935 52.9084 50.8935C52.835 50.8935 52.7748 50.8168 52.7748 50.723C52.7748 50.6294 52.5946 50.4796 52.3744 50.3903C52.1541 50.301 52.0401 50.2063 52.1209 50.18C52.2265 50.1455 52.231 50.0646 52.1368 49.8923C52.0648 49.7604 52.0477 49.5841 52.099 49.5005C52.1713 49.3826 52.151 49.3812 52.008 49.4944C51.8552 49.6152 51.7833 49.5413 51.5869 49.0618C51.2995 48.3601 50.7141 47.7221 50.1403 47.4852C49.5886 47.2575 48.7241 47.2603 48.4127 47.4909ZM82.0581 49.4104C82.0581 49.4784 82.1183 49.534 82.1918 49.534C82.2652 49.534 82.2903 49.4784 82.2474 49.4104C82.2045 49.3425 82.1444 49.2869 82.1138 49.2869C82.0831 49.2869 82.0581 49.3425 82.0581 49.4104ZM46.085 50.0975C46.085 50.2034 46.1427 50.2552 46.2133 50.2125C46.2838 50.1698 46.3089 50.0831 46.2689 50.0198C46.1608 49.8484 46.085 49.8803 46.085 50.0975ZM46.4637 50.2755C46.4637 50.4115 46.4855 50.5227 46.512 50.5227C46.5387 50.5227 46.5902 50.4115 46.6265 50.2755C46.6627 50.1396 46.641 50.0284 46.578 50.0284C46.5152 50.0284 46.4637 50.1396 46.4637 50.2755ZM29.1714 50.6463C29.1714 50.7143 29.2282 50.7699 29.2976 50.7699C29.367 50.7699 29.4238 50.7143 29.4238 50.6463C29.4238 50.5783 29.367 50.5227 29.2976 50.5227C29.2282 50.5227 29.1714 50.5783 29.1714 50.6463ZM32.0745 50.7081C32.0745 50.8607 31.8791 50.889 30.97 50.8683L29.8656 50.8432L30.9069 50.8015C31.4797 50.7787 31.9482 50.7065 31.9482 50.6414C31.9482 50.5761 31.9766 50.5227 32.0114 50.5227C32.0461 50.5227 32.0745 50.6061 32.0745 50.7081ZM57.1366 50.8418C56.8329 51.0593 56.3947 51.0729 56.468 50.8626C56.4975 50.7777 56.6393 50.7247 56.7828 50.7449C56.9264 50.7652 57.0831 50.7197 57.1309 50.6439C57.1786 50.5682 57.2546 50.5424 57.2997 50.5864C57.3446 50.6305 57.2713 50.7454 57.1366 50.8418ZM41.7433 51.3546C41.7015 51.3955 41.6673 51.3609 41.6673 51.2776C41.6673 51.1943 41.6105 51.1604 41.5411 51.2024C41.471 51.2448 41.4148 51.1534 41.4148 50.9969V50.7149L41.617 50.9975C41.7282 51.153 41.785 51.3137 41.7433 51.3546ZM57.5693 52.1675C57.5703 52.2225 57.5144 52.2331 57.4449 52.1911C57.3755 52.1491 57.3196 52.0207 57.3206 51.9058C57.3224 51.7257 57.3395 51.7224 57.4449 51.8822C57.5122 51.9841 57.5681 52.1125 57.5693 52.1675ZM28.2491 52.3432C28.217 52.4635 28.1887 52.395 28.1862 52.1911C28.1837 51.9872 28.2098 51.8888 28.2444 51.9725C28.279 52.0562 28.2811 52.223 28.2491 52.3432ZM79.5436 70.6261C79.5382 70.7055 79.501 70.8724 79.461 70.9968C79.3919 71.212 79.3956 71.2124 79.533 71.0023C79.6127 70.8808 79.6498 70.7139 79.6157 70.6315C79.5709 70.5234 79.5508 70.5219 79.5436 70.6261Z" fill="url(#paint2_linear_1845_169)"/>
<defs>
<linearGradient id="paint0_linear_1845_169" x1="55.8143" y1="0.546143" x2="55.8143" y2="112.147" gradientUnits="userSpaceOnUse">
<stop stop-color="#FFFAE8"/>
<stop offset="1" stop-color="#FFD8FB"/>
</linearGradient>
<linearGradient id="paint1_linear_1845_169" x1="84.3865" y1="25.3577" x2="18.4571" y2="96.7942" gradientUnits="userSpaceOnUse">
<stop stop-color="#6C6C6C"/>
<stop offset="1" stop-color="#501699"/>
</linearGradient>
<linearGradient id="paint2_linear_1845_169" x1="83.0467" y1="28.0362" x2="17.1173" y2="99.4726" gradientUnits="userSpaceOnUse">
<stop stop-color="#6C6C6C"/>
<stop offset="1" stop-color="#501699"/>
</linearGradient>
</defs>
</svg>
