<svg width="113" height="113" viewBox="0 0 113 113" fill="none" xmlns="http://www.w3.org/2000/svg">
<rect x="0.614746" y="0.546143" width="111.601" height="111.601" rx="13.3706" fill="url(#paint0_linear_1845_182)"/>
<path d="M22.9351 84.1812V28.4474H44.3651C50.5403 28.4474 55.695 29.7034 59.8293 32.2153C64.0159 34.6749 67.1558 38.0242 69.2491 42.2631C71.3947 46.4497 72.4675 51.1072 72.4675 56.2358C72.4675 61.8877 71.29 66.8069 68.9351 70.9935C66.6325 75.1801 63.3617 78.4247 59.1228 80.7273C54.9362 83.0299 50.017 84.1812 44.3651 84.1812H22.9351ZM56.9248 56.2358C56.9248 53.3575 56.4277 50.8456 55.4334 48.7C54.4391 46.502 52.9999 44.8012 51.116 43.5976C49.232 42.3939 46.9817 41.7921 44.3651 41.7921H38.2422V70.8365H44.3651C47.0341 70.8365 49.2843 70.2085 51.116 68.9525C52.9999 67.6966 54.4391 65.9696 55.4334 63.7716C56.4277 61.5214 56.9248 59.0094 56.9248 56.2358Z" fill="white"/>
<path d="M66.1119 34.6138H71.0648L89.9642 80.8848H83.7079L78.2336 67.3294H58.8128L53.4036 80.8848H47.1473L66.1119 34.6138ZM76.9302 62.7675L68.5883 41.3916L59.9858 62.7675H76.9302Z" fill="black"/>
<defs>
<linearGradient id="paint0_linear_1845_182" x1="56.4154" y1="0.546143" x2="56.4154" y2="112.147" gradientUnits="userSpaceOnUse">
<stop stop-color="#EBEF1C"/>
<stop offset="1" stop-color="#EFDA1C"/>
</linearGradient>
</defs>
</svg>
