<svg width="113" height="112" viewBox="0 0 113 112" fill="none" xmlns="http://www.w3.org/2000/svg">
<rect x="0.879395" width="111.866" height="111.866" rx="13.4023" fill="url(#paint0_linear_1845_162)"/>
<path fill-rule="evenodd" clip-rule="evenodd" d="M35.9055 52.0531C30.7182 61.7328 26.3855 69.8828 26.2774 70.1643C26.1688 70.4463 33.1456 70.6767 41.7809 70.6767H57.4811V62.6603V54.6439H51.5868H45.6931L44.4877 57.0191L43.2822 59.3944H47.6669H52.0516L52.256 62.364L52.4609 65.333H44.0447C39.4155 65.3325 35.6285 65.2469 35.6285 65.143C35.6285 64.877 47.2996 43.485 48.7277 41.1347C49.3939 40.0373 50.3884 39.2048 51.0328 39.2048C52.0658 39.2048 52.1656 39.6763 52.1656 44.5491V49.8934H54.8233H57.4811V42.1739V34.4543H51.409H45.3376L35.9055 52.0531ZM59.2529 52.5655V70.6767H61.9106H64.5684V65.013V59.3498L69.9919 59.5202L75.4155 59.6913L78.3567 65.184L81.2974 70.6767H84.2038C85.802 70.6767 87.0216 70.457 86.9129 70.1892C86.8048 69.9208 82.4638 61.7743 77.2665 52.0857L67.8167 34.4698L63.5348 34.4621L59.2529 34.4543V52.5655ZM72.2463 54.3743C72.2463 54.5227 70.5188 54.6439 68.4073 54.6439H64.5684L64.5772 47.3697L64.5861 40.0955L68.4162 47.1001C70.5229 50.9528 72.2463 54.2258 72.2463 54.3743ZM24.3385 73.7889C23.9504 74.527 23.2446 75.7318 22.7704 76.4664L21.9087 77.8025H56.5875H91.2657L89.7832 75.2788L88.3014 72.7551L56.6731 72.6013L25.0448 72.4481L24.3385 73.7889Z" fill="white"/>
<defs>
<linearGradient id="paint0_linear_1845_162" x1="0.879395" y1="111.866" x2="112.745" y2="0" gradientUnits="userSpaceOnUse">
<stop stop-color="#6F085A"/>
<stop offset="1" stop-color="#C51C53"/>
</linearGradient>
</defs>
</svg>
