<svg width="112" height="113" viewBox="0 0 112 113" fill="none" xmlns="http://www.w3.org/2000/svg">
<rect x="0.0820312" y="0.546143" width="111.866" height="111.866" rx="13.4023" fill="url(#paint0_linear_1845_159)"/>
<path fill-rule="evenodd" clip-rule="evenodd" d="M79.7784 14.6678C79.4131 14.7339 78.3712 15.0323 77.463 15.3313C72.5749 16.9397 69.1586 17.7517 67.2553 17.7572C66.5123 17.7594 66.1736 17.6955 66.0438 17.5283C65.7788 17.1868 65.692 17.2218 64.6683 18.0818C63.9566 18.68 63.6927 19.0126 63.5632 19.4748C63.3377 20.2793 63.5581 20.7943 64.2627 21.1092C64.8789 21.3844 65.7619 21.2585 67.6356 20.6282C68.3752 20.3794 69.2508 20.2326 70.385 20.1671C71.3003 20.1144 73.1849 20.0053 74.5729 19.925C75.961 19.8445 77.1243 19.8083 77.158 19.8445C77.3046 20.0013 72.2608 25.9115 71.3679 26.6292L70.8245 27.066L68.4704 26.2113C67.1755 25.7413 65.3347 25.1795 64.3796 24.9629C62.7365 24.5902 60.0638 23.9401 58.9531 23.6429C56.4088 22.9621 53.8545 22.6647 50.4152 22.6489C46.7901 22.6322 46.4123 22.692 42.9627 23.8267C39.677 24.9075 34.9842 27.2472 33.1764 28.7057C31.3833 30.1523 30.727 30.7574 29.5048 32.0912C28.0651 33.6625 27.5513 34.2831 27.5513 34.4513C27.5513 34.5232 27.3488 34.8526 27.1014 35.1834C26.4361 36.0726 25.1398 39.1128 24.6697 40.8863C23.6598 44.6953 23.5718 45.4763 23.5718 50.6379V55.1247L24.0526 56.7492C24.7213 59.0081 24.8815 59.4379 25.5868 60.8626C26.8477 63.4094 28.9024 65.7957 31.3496 67.5558C32.4204 68.3258 35.2642 69.8659 36.8588 70.5392C40.1186 71.9156 42.9598 72.5165 46.2549 72.5263L47.6658 72.5305V77.0173C47.6658 79.485 47.6169 81.5001 47.5572 81.4951C47.4309 81.4848 46.9065 81.0946 45.659 80.0829C44.7861 79.3749 43.7442 78.9291 42.7548 78.8402C42.4885 78.8162 42.2446 78.8751 42.2126 78.9714C42.1611 79.1259 42.4678 79.3579 43.9204 80.2625C44.7761 80.7953 46.0812 82.3216 45.8721 82.545C45.5655 82.8729 39.1039 83.0126 36.7403 82.7423C35.2412 82.5709 34.0076 82.1338 33.5041 81.5957C33.1256 81.1908 33.1592 80.8018 33.5897 80.607C34.1934 80.3338 34.9314 79.755 34.9314 79.5548C34.9314 79.4038 34.7494 79.338 34.3309 79.338C33.9687 79.338 33.4306 79.1757 32.9754 78.9293C32.085 78.4473 31.7542 78.4956 31.0008 79.2172C29.9391 80.2345 29.6074 81.5921 30.1455 82.7197C30.5035 83.4701 30.5679 83.5198 32.0592 84.1984C35.2136 85.6334 40.1823 86.1173 45.8569 85.5421C46.5732 85.4695 47.1849 85.4346 47.2162 85.4647C47.2474 85.4947 47.2 86.5827 47.1108 87.8825C47.0217 89.1823 46.9084 91.2643 46.859 92.5093L46.7692 94.773L47.2874 95.3435C47.6771 95.7725 47.9019 95.9017 48.1948 95.8647C48.5387 95.8212 48.6217 95.6891 48.9062 94.7325C49.0835 94.1368 49.2848 93.3361 49.3534 92.9532L49.4784 92.257L49.8671 93.5721C50.081 94.2954 50.4199 95.4816 50.6203 96.208C50.9214 97.2997 51.0978 97.6553 51.638 98.258C51.9975 98.6591 52.4102 98.9872 52.555 98.9872C52.8352 98.9872 53.5224 98.2727 53.9496 97.5371C54.1068 97.2663 54.2685 96.5065 54.3632 95.594C54.5308 93.9795 54.4588 93.2135 53.6095 87.5768C53.2638 85.2828 53.1608 84.2313 53.2702 84.1143C53.3356 84.0444 54.0224 83.8114 54.7964 83.5965C62.5878 81.434 67.1427 80.0174 67.5994 79.6145C68.0172 79.2458 67.745 79.1555 66.4417 79.2302C64.4417 79.3449 60.3156 80.0411 54.8289 81.1897C53.2159 81.5275 53.0802 81.536 52.9051 81.3105C52.7478 81.1079 52.6711 80.1995 52.3533 74.7739C52.3085 74.008 52.3289 73.1038 52.3988 72.7647L52.5257 72.1482L53.6049 71.9447C54.8663 71.7069 55.3378 71.5881 56.7101 71.1615C57.2672 70.9884 57.8858 70.8033 58.0848 70.7506C58.2838 70.6977 58.5768 70.5979 58.736 70.5287C58.8952 70.4596 59.2076 70.3246 59.4302 70.229C59.6527 70.1333 59.9349 70.055 60.057 70.055C60.2689 70.055 61.2704 69.6133 63.2629 68.6409C64.1739 68.1963 64.4733 67.8498 64.1992 67.5567C64.1003 67.4511 63.8471 67.4993 63.4202 67.7053C62.631 68.086 61.7005 68.4156 60.7619 68.6464C59.1571 69.0411 58.1566 69.2551 58.1163 69.2119C58.093 69.187 58.57 68.9147 59.1763 68.6068C62.7067 66.8143 65.9685 64.3525 67.9412 61.9917C69.6245 59.9773 71.9423 55.9664 72.9775 53.2764L73.6358 51.5662L73.6371 49.0907C73.6385 46.4998 73.4642 45.2484 72.8219 43.2419C72.2603 41.4869 71.652 40.3196 69.6411 37.1384C69.5106 36.9317 68.9368 36.2124 68.3661 35.54C67.4467 34.4567 67.3499 34.2857 67.5181 34.041C68.0746 33.231 70.8895 30.3072 71.1906 30.2264C71.5883 30.1197 72.5735 30.6002 73.4963 31.3512C75.001 32.5757 75.4043 32.9247 76.5783 34.0193C78.3097 35.6335 79.7516 37.2574 80.4225 38.3489C80.7326 38.8533 81.0443 39.2661 81.1153 39.2661C81.1862 39.2661 81.3176 39.0944 81.4071 38.8843C81.6969 38.2041 81.0695 36.7187 79.5096 34.3925C78.7699 33.2895 75.9928 30.5266 74.554 29.4621L73.1514 28.4246L75.7299 25.661C78.2254 22.9862 79.5198 21.4069 80.2093 20.1951C80.5375 19.6183 81.0412 19.2001 81.2014 19.3714C81.3017 19.4785 81.0388 20.5177 80.6696 21.4736C80.2456 22.5716 79.9818 23.3518 79.7805 24.1038C79.6781 24.4867 79.5503 24.8696 79.4966 24.9547C79.4428 25.0398 79.2832 25.8454 79.1419 26.745C78.937 28.0488 78.9201 28.4507 79.0584 28.727C79.3615 29.3325 79.5733 29.0852 80.3022 27.2755C80.4798 26.8345 80.5773 26.7253 80.6416 26.8958C80.6912 27.0273 80.9271 27.4262 81.1658 27.7822C81.4865 28.2601 81.7005 28.4301 81.9846 28.4326C82.3111 28.4354 82.4509 28.2776 82.9076 27.3915C83.2036 26.8172 84.1934 24.8851 85.1073 23.0981C86.021 21.3111 87.0221 19.5547 87.3317 19.1949C87.7482 18.7111 87.8948 18.4081 87.8948 18.0312C87.8948 17.588 87.8149 17.4778 87.2798 17.184C86.9416 16.9982 86.3118 16.729 85.8806 16.5859C85.1568 16.3456 85.0452 16.3447 84.4335 16.5732C82.9541 17.1258 81.0935 17.4529 81.0935 17.1603C81.0935 16.8681 81.4972 16.7319 82.4682 16.6966C83.5459 16.6575 84.3367 16.466 84.748 16.1445C84.9542 15.9832 84.9733 15.866 84.8529 15.4968C84.6316 14.8182 83.6705 14.5065 81.87 14.5295C81.0848 14.5394 80.1435 14.6018 79.7784 14.6678ZM79.7911 16.6488C79.7911 17.0608 78.0297 17.6774 76.4792 17.808C75.574 17.8843 75.6963 17.786 77.1863 17.2397C78.834 16.6355 79.7911 16.4185 79.7911 16.6488ZM51.1317 25.411C50.2289 25.7665 49.3812 25.8645 49.2437 25.6291C49.0872 25.3613 49.589 25.2261 50.777 25.216L51.6453 25.2086L51.1317 25.411ZM46.0016 26.7364C46.2433 26.8297 46.1476 26.9246 45.4228 27.3109C39.2164 30.6177 33.3793 34.5355 31.5649 36.6119C31.1856 37.0459 30.7545 37.4701 30.6066 37.5548C30.4589 37.6393 29.7886 38.4593 29.1173 39.3769C27.846 41.1145 26.4879 43.4941 25.6695 45.4182C25.4065 46.0361 25.1608 46.5091 25.1235 46.4692C24.8969 46.227 26.0692 42.5265 27.0103 40.5127C27.9468 38.5094 29.7006 35.9138 31.2413 34.2516C32.6219 32.7619 33.1218 32.3385 34.9314 31.1253C36.0344 30.3858 40.4494 28.0707 42.4563 27.1796C43.9656 26.5093 44.1945 26.4491 44.9163 26.5327C45.3541 26.5833 45.8424 26.675 46.0016 26.7364ZM60.0384 26.8915C62.1679 27.0808 63.6976 27.3169 66.4779 27.8854C67.4745 28.0893 68.9455 28.5367 69.0754 28.6757C69.1747 28.7818 68.6144 29.4811 67.3453 30.8349C65.524 32.7779 65.4565 32.832 65.0687 32.6604C62.4598 31.5062 61.6953 31.218 60.3278 30.8731C59.4523 30.6524 58.2802 30.4012 57.723 30.3151C57.1659 30.229 56.2367 30.0842 55.6582 29.9934C55.0798 29.9026 53.3948 29.8283 51.914 29.8283C49.6264 29.8283 48.9572 29.8856 47.4627 30.2091C41.7259 31.451 36.9219 34.8529 33.8125 39.8755C32.9171 41.3219 31.4813 44.4462 31.1062 45.7643C30.973 46.2323 30.8075 46.7275 30.7382 46.8649C30.5697 47.1988 29.6438 51.4333 29.4307 52.8442C29.2423 54.0909 29.3494 56.7621 29.6106 57.3294C29.9524 58.0722 30.1107 57.708 30.2107 55.9497C30.2647 54.9992 30.3663 53.9375 30.4365 53.5902C30.5067 53.2429 30.6383 52.4713 30.7292 51.8756C31.1438 49.1588 31.9944 46.0814 32.5468 45.3001C32.6369 45.1725 32.8891 44.6155 33.1071 44.0624C33.8697 42.1276 35.4214 40.0544 38.3366 37.075C40.7963 34.5611 43.1219 33.288 46.5081 32.6015C47.7205 32.3556 51.4922 32.239 51.8114 32.4373C52.0435 32.5815 52.0177 32.6044 51.6181 32.6086C49.6176 32.6289 45.5238 34.5752 42.602 36.8949C39.9357 39.0119 36.9042 42.5263 35.8771 44.6911C35.3305 45.843 34.4274 48.1731 33.8394 49.9477C33.2357 51.7703 33.0367 53.7545 33.1952 56.374C33.2963 58.0462 33.7216 60.4779 34.059 61.3134C34.779 63.0962 35.1567 63.8963 35.3812 64.1135C35.528 64.2555 35.6133 64.4321 35.5706 64.5059C35.47 64.6799 34.7429 64.6771 34.0799 64.5001C33.7921 64.4232 33.2311 64.2798 32.8331 64.1811C32.4352 64.0826 31.6478 63.7614 31.0833 63.4672C28.6573 62.2033 26.9817 60.2273 26.1325 57.6288C25.6279 56.0846 25.6177 56.005 25.618 53.6549C25.6182 51.0397 25.8567 49.6997 26.8248 46.8755C27.5285 44.8227 27.7673 44.3819 29.2868 42.3311C29.6455 41.847 30.232 41.0226 30.5901 40.4994C31.2632 39.5161 32.6253 38.1357 34.1355 36.907C34.6131 36.5185 35.4201 35.8131 35.9287 35.3397C36.4375 34.8661 37.2841 34.2078 37.81 33.8767C39.1332 33.0435 43.4089 30.6019 43.5448 30.6019C43.6058 30.6019 44.9 30.1223 46.4206 29.5362C49.6455 28.2932 49.9582 28.1891 50.9217 28.0381C51.3197 27.9757 51.7429 27.9072 51.8623 27.8855C51.9817 27.864 52.5352 27.7724 53.0924 27.6821C53.6495 27.5917 54.9519 27.348 55.9865 27.1406C58.2648 26.6838 57.9317 26.7043 60.0384 26.8915ZM57.84 34.9465C59.4834 35.2106 62.1366 36.0786 62.1366 36.352C62.1366 36.4929 61.2321 37.7353 60.1096 39.1358C59.4357 39.9767 59.3682 40.4263 59.895 40.5678C60.447 40.7158 61.0463 40.3044 62.6106 38.7029C63.3887 37.9065 64.097 37.2548 64.1848 37.2548C64.3805 37.2548 65.8908 38.3449 66.74 39.0989C67.5952 39.8584 68.4399 41.0703 68.6539 41.8451C68.8147 42.4275 68.7934 42.6153 68.4348 43.7791C67.8891 45.5497 66.3688 48.7028 65.3878 50.099C63.6795 52.5301 60.7745 55.3207 58.6995 56.5238C58.3217 56.743 57.4264 57.2999 56.7101 57.7614C55.1717 58.7528 51.544 60.8168 49.914 61.6283C48.1876 62.4877 46.6521 63.0326 44.6992 63.4788C39.6776 64.6262 39.6107 64.6398 38.994 64.6398C37.5978 64.6398 35.8904 62.3817 35.1998 59.622C34.7837 57.9588 34.8239 54.6698 35.2871 52.4765C36.1095 48.5838 37.3104 45.3767 38.7092 43.3374C40.1871 41.1826 42.2687 38.9613 43.2883 38.4511C43.4675 38.3615 43.6139 38.2351 43.6139 38.1704C43.6139 38.0259 45.4707 37.0716 46.9422 36.4597C48.1872 35.942 50.4264 35.3013 52.007 35.0106C53.3687 34.7601 56.4686 34.7261 57.84 34.9465ZM70.0878 45.9963C70.3959 47.0554 70.6745 48.9142 70.6745 49.9113C70.6745 50.7029 70.5665 51.2916 70.2549 52.1999C69.5994 54.1104 69.3912 54.5697 68.7964 55.4171C68.0826 56.4341 65.2136 59.4362 64.0902 60.3416C63.3068 60.9729 58.7082 63.4383 56.1312 64.6084C54.1289 65.5177 52.5979 65.9735 52.3538 65.7332C52.0366 65.4209 51.1548 65.2386 50.8381 65.4199C50.4503 65.6418 50.276 65.417 50.2727 64.6904C50.2714 64.3951 50.1264 64.0162 49.9088 63.7397C49.7098 63.4869 49.547 63.235 49.547 63.1799C49.547 63.1249 49.9865 62.8696 50.5238 62.6127C54.9461 60.4988 57.1543 59.2806 58.8807 58.0023C60.1793 57.0407 61.0442 56.3832 61.4351 56.0604C61.6461 55.8862 62.0157 55.5833 62.2563 55.3873C63.0809 54.7158 64.8609 52.9586 65.4794 52.2059C67.2143 50.094 68.2844 48.1616 69.0037 45.8416C69.2146 45.1609 69.4219 44.4994 69.4641 44.3718C69.535 44.1574 69.6087 44.3494 70.0878 45.9963ZM65.6714 62.1291C63.4315 64.361 61.6057 65.6095 58.9531 66.7225C58.1969 67.0398 57.5132 67.3555 57.4336 67.4242C57.354 67.4927 56.7898 67.7272 56.1797 67.9454C55.1804 68.3028 54.3577 68.497 52.6837 68.7707L52.1303 68.861L52.1772 68.3438C52.2219 67.8502 52.2669 67.8137 53.1647 67.5417C55.183 66.9301 59.6313 65.3265 60.1318 65.0299C60.4221 64.8578 61.4057 64.2871 62.3178 63.7615C63.2298 63.2359 64.4575 62.4893 65.046 62.1025C65.6345 61.7157 66.1813 61.3988 66.2608 61.3984C66.3404 61.3979 66.0752 61.7267 65.6714 62.1291ZM47.2316 64.3705C47.2316 64.5628 47.3526 64.8009 47.5005 64.8996C47.8173 65.1111 48.0157 66.3094 47.7834 66.6088C47.585 66.8642 46.5139 66.8546 44.0481 66.5757C42.1517 66.3611 41.0594 66.1276 40.8203 65.8856C40.6811 65.7448 41.0911 65.6305 44.2289 64.9358C45.4575 64.6638 46.6609 64.2868 46.7407 64.1489C46.8959 63.8805 47.2316 64.032 47.2316 64.3705ZM34.5696 65.7306C35.0472 65.8216 35.8685 65.9458 36.3947 66.0068C37.0589 66.0838 37.5273 66.2421 37.9259 66.524C38.7574 67.1124 40.5198 68.0398 41.2876 68.293C41.6518 68.4133 42.5684 68.5438 43.3245 68.5833C47.6895 68.811 47.9452 68.8531 47.953 69.3447C47.9559 69.5274 42.0616 69.3346 40.9235 69.1148C39.0246 68.7478 35.8183 67.4953 33.7737 66.3221C32.0132 65.3118 32.0859 65.2576 34.5696 65.7306ZM50.6782 85.7202C50.7685 86.1668 50.911 87.0894 50.9949 87.7702C51.0789 88.4509 51.2098 89.356 51.286 89.7815C51.3621 90.207 51.4872 91.0773 51.5639 91.7155C51.6406 92.3537 51.8366 93.6765 51.9991 94.6551C52.3318 96.6566 52.3494 96.8744 52.1695 96.7556C52.0998 96.7095 51.8681 95.8525 51.6548 94.8512C51.4414 93.8498 51.1748 92.6128 51.0625 92.1023C50.9501 91.5917 50.7242 90.4777 50.5605 89.6268C50.3969 88.7758 50.206 87.8548 50.1365 87.5802C50.0645 87.2952 50.0646 86.8303 50.1368 86.4972C50.2066 86.1761 50.2652 85.6874 50.2671 85.4107C50.2724 84.6438 50.4943 84.8109 50.6782 85.7202ZM60.5106 93.8142C60.0964 94.0545 59.6411 94.8222 59.5995 95.3509C59.4682 97.0113 61.2931 98.181 62.5708 97.2555C63.2963 96.7297 63.5787 95.8172 63.2898 94.931C62.9052 93.7502 61.5556 93.208 60.5106 93.8142ZM62.2842 94.1152C62.5166 94.2437 62.7815 94.4979 62.8726 94.68C63.104 95.1423 63.0652 96.204 62.8069 96.4802C62.6162 96.6841 62.5576 96.6508 62.2954 96.1896C62.0417 95.7437 62.0297 95.6504 62.2126 95.541C62.5198 95.3572 62.4774 94.6953 62.1462 94.5058C61.9922 94.4178 61.5821 94.3457 61.2348 94.3457H60.6035L60.6641 95.3636C60.7034 96.025 60.6645 96.4447 60.5527 96.5626C60.2922 96.837 59.966 96.2676 59.966 95.5384C59.966 95.0569 60.0663 94.8264 60.458 94.4076C61.0118 93.8155 61.5782 93.7248 62.2842 94.1152ZM61.7668 94.7959C61.8917 95.0119 61.6962 95.4287 61.47 95.4287C61.3515 95.4287 61.2684 95.2694 61.2684 95.0419C61.2684 94.6619 61.5959 94.5002 61.7668 94.7959ZM61.6341 96.2103C61.7597 96.47 62.0055 96.7413 62.1803 96.8133C62.4877 96.9395 62.4838 96.9502 62.0657 97.1249C61.6119 97.3147 60.7606 97.2239 60.6137 96.9699C60.5648 96.8854 60.7502 96.8212 61.0428 96.8212C61.326 96.8212 61.5578 96.7516 61.5578 96.6665C61.5578 96.5814 61.4927 96.5117 61.4131 96.5117C61.3335 96.5117 61.2684 96.3377 61.2684 96.1249C61.2684 95.6164 61.3567 95.637 61.6341 96.2103Z" fill="white"/>
<defs>
<linearGradient id="paint0_linear_1845_159" x1="0.0820307" y1="57.8434" x2="111.948" y2="57.8434" gradientUnits="userSpaceOnUse">
<stop stop-color="#F348A0"/>
<stop offset="1" stop-color="#DD46F5"/>
</linearGradient>
</defs>
</svg>
