<svg width="113" height="113" viewBox="0 0 113 113" fill="none" xmlns="http://www.w3.org/2000/svg">
<rect x="0.21582" y="0.546143" width="111.866" height="111.866" rx="13.4023" fill="url(#paint0_linear_1845_156)"/>
<path fill-rule="evenodd" clip-rule="evenodd" d="M53.0748 22.1634C52.2737 22.768 48.8927 28.9956 45.5626 36.0035C42.2326 43.0114 35.4995 56.848 30.6015 66.7513C25.7035 76.6546 21.6953 85.4244 21.6953 86.2399C21.6953 87.0562 22.3163 88.3444 23.0753 89.1046C24.2787 90.3084 28.4837 90.485 55.8796 90.485C85.2071 90.485 87.4005 90.3778 88.7576 88.8778C89.557 87.9938 90.2114 86.6248 90.2114 85.8357C90.2114 83.8014 61.3951 25.4341 59.2096 23.0421C57.1805 20.8198 55.2278 20.5404 53.0748 22.1634ZM59.4872 25.6783C61.8176 29.4789 80.0789 65.7205 85.3907 77.087C91.6529 90.4877 93.704 89.6063 56.2564 89.6063C27.1915 89.6063 26.0224 89.5413 24.3191 87.8374C22.572 86.0896 22.5702 86.0272 24.2102 82.7847C25.1238 80.978 26.7646 77.5237 27.8574 75.1072C31.3183 67.4552 52.5557 25.0676 53.5035 23.9209C55.1101 21.9771 57.6803 22.7319 59.4872 25.6783ZM53.008 32.8708C48.3367 37.9147 46.4516 55.8682 49.4048 67.2082C51.0132 73.3866 52.7243 75.5465 56.0113 75.5465C58.9224 75.5465 61.6446 72.5632 64.6681 66.0606C65.8372 63.5448 67.0433 61.4868 67.3481 61.4868C67.8365 61.4868 71.7648 68.8822 71.7648 69.8023C71.7648 70.0009 70.5104 70.2864 68.9776 70.4385C64.5082 70.8796 64.7788 72.9103 69.307 72.9103H73.1447L75.975 78.652C78.8817 84.5483 80.779 86.2126 82.5613 84.4297C83.3308 83.6599 81.8235 79.8954 76.3571 68.9349C72.3858 60.9719 68.7263 54.4569 68.2256 54.4569C67.7241 54.4569 65.5623 58.0571 63.4216 62.4578C61.2809 66.8585 59.0708 71.0105 58.5122 71.6845C56.7826 73.7697 55.0486 73.0518 53.5131 69.6151C50.6188 63.1388 52.3352 35.5755 55.7013 34.471C56.2977 34.275 57.0066 35.2117 57.3123 36.6001C58.3655 41.3936 58.3857 41.4174 60.3252 40.2056C62.5968 38.7864 62.5599 37.8225 60.0951 34.1625C57.5415 30.3717 55.6442 30.0263 53.008 32.8708ZM33.9983 72.0202C29.7688 80.5641 28.6005 83.6845 29.3498 84.4341C30.1 85.1845 31.552 83.0422 35.128 75.9121L39.9048 66.3866L41.2294 68.9894C41.9585 70.4209 42.829 72.4824 43.1646 73.5694C43.7013 75.3119 43.465 75.5465 41.1732 75.5465C39.7142 75.5465 38.3588 76.1045 38.0856 76.8181C37.7096 77.797 38.5485 78.1511 41.7222 78.3559C45.5301 78.6019 45.9667 78.8752 47.3941 81.9174L48.9401 85.2126H60.7416C71.9844 85.2126 72.6089 85.1186 73.9292 83.2355L75.3153 81.2583L63.4216 81.014L51.527 80.7689L46.5113 70.6889C43.7522 65.1441 41.0792 60.6081 40.5715 60.6081C40.0638 60.6081 37.1062 65.7434 33.9983 72.0202Z" fill="white"/>
<defs>
<linearGradient id="paint0_linear_1845_156" x1="56.1489" y1="0.546143" x2="56.1489" y2="112.412" gradientUnits="userSpaceOnUse">
<stop stop-color="#FF5E65"/>
<stop offset="1" stop-color="#E12A2A"/>
</linearGradient>
</defs>
</svg>
